<svg xmlns="http://www.w3.org/2000/svg" xmlns:xlink="http://www.w3.org/1999/xlink" contentStyleType="text/css" data-diagram-type="DESCRIPTION" height="702px" preserveAspectRatio="none" style="width:2397px;height:702px;background:#FFFFFF;" version="1.1" viewBox="0 0 2397 702" width="2397px" zoomAndPan="magnify"><title>adc_cpp -- architecture en couches (vue package)</title><defs/><g><g class="title" data-source-line="4"><text fill="#000000" font-family="Helvetica" font-size="14" font-weight="bold" lengthAdjust="spacing" textLength="332.2266" x="1025.6017" y="20.7803">adc_cpp -- architecture en couches (vue package)</text></g><!--cluster L1--><g class="cluster" data-entity="L1" data-source-line="13" data-uid="ent0002" id="cluster_L1"><rect fill="#E3EEF8" height="297" rx="2.5" ry="2.5" style="stroke:#08519C;stroke-width:1;" width="413" x="960.43" y="87.355"/><text fill="#000000" font-family="Helvetica" font-size="14" font-weight="bold" lengthAdjust="spacing" textLength="230.3164" x="1051.7718" y="100.1353">1. Physique (local, device-callable)</text></g><!--cluster L2--><g class="cluster" data-entity="L2" data-source-line="20" data-uid="ent0007" id="cluster_L2"><rect fill="#E3EEF8" height="315" rx="2.5" ry="2.5" style="stroke:#08519C;stroke-width:1;" width="648" x="272.43" y="258.355"/><text fill="#000000" font-family="Helvetica" font-size="14" font-weight="bold" lengthAdjust="spacing" textLength="192.9307" x="499.9647" y="271.1353">2. Numerique (discretisation)</text></g><!--cluster L3--><g class="cluster" data-entity="L3" data-source-line="26" data-uid="ent0011" id="cluster_L3"><rect fill="#E3EEF8" height="315" rx="2.5" ry="2.5" style="stroke:#08519C;stroke-width:1;" width="482" x="1480.43" y="258.355"/><text fill="#000000" font-family="Helvetica" font-size="14" font-weight="bold" lengthAdjust="spacing" textLength="146.6719" x="1648.0941" y="271.1353">3. Donnees + maillage</text></g><!--cluster L4--><g class="cluster" data-entity="L4" data-source-line="32" data-uid="ent0015" id="cluster_L4"><rect fill="#FDE9E9" height="249" rx="2.5" ry="2.5" style="stroke:#08519C;stroke-width:1;" width="468" x="969.43" y="447.355"/><text fill="#000000" font-family="Helvetica" font-size="14" font-weight="bold" lengthAdjust="spacing" textLength="262.1719" x="1072.3441" y="460.1353">4. Execution (backend a la compilation)</text></g><!--cluster L5--><g class="cluster" data-entity="L5" data-source-line="38" data-uid="ent0019" id="cluster_L5"><rect fill="#E3EEF8" height="297" rx="2.5" ry="2.5" style="stroke:#08519C;stroke-width:1;" width="389" x="2002.43" y="87.355"/><text fill="#000000" font-family="Helvetica" font-size="14" font-weight="bold" lengthAdjust="spacing" textLength="138.0996" x="2127.8802" y="100.1353">5. Temps + couplage</text></g><!--entity PhysicalModel  <<concept>>--><g class="entity" data-entity="PhysicalModel  ..concept.." data-source-line="14" data-uid="ent0003" id="entity_PhysicalModel  ..concept.."><rect fill="#F1F1F1" height="44" rx="2.5" ry="2.5" style="stroke:#181818;stroke-width:0.5;" width="202.6475" x="1138.1" y="145.355"/><rect fill="#F1F1F1" height="10" style="stroke:#181818;stroke-width:0.5;" width="15" x="1320.7475" y="150.355"/><rect fill="#F1F1F1" height="2" style="stroke:#181818;stroke-width:0.5;" width="4" x="1318.7475" y="152.355"/><rect fill="#F1F1F1" height="2" style="stroke:#181818;stroke-width:0.5;" width="4" x="1318.7475" y="156.355"/><text fill="#000000" font-family="Helvetica" font-size="14" lengthAdjust="spacing" textLength="162.6475" x="1153.1" y="176.1353">PhysicalModel  &#171;concept&#187;</text></g><!--entity Diocotron--><g class="entity" data-entity="Diocotron" data-source-line="15" data-uid="ent0004" id="entity_Diocotron"><rect fill="#F1F1F1" height="44" rx="2.5" ry="2.5" style="stroke:#181818;stroke-width:0.5;" width="99.917" x="1003.47" y="145.355"/><rect fill="#F1F1F1" height="10" style="stroke:#181818;stroke-width:0.5;" width="15" x="1083.387" y="150.355"/><rect fill="#F1F1F1" height="2" style="stroke:#181818;stroke-width:0.5;" width="4" x="1081.387" y="152.355"/><rect fill="#F1F1F1" height="2" style="stroke:#181818;stroke-width:0.5;" width="4" x="1081.387" y="156.355"/><text fill="#000000" font-family="Helvetica" font-size="14" lengthAdjust="spacing" textLength="59.917" x="1018.47" y="176.1353">Diocotron</text></g><!--entity Euler / EulerPoisson--><g class="entity" data-entity="Euler . EulerPoisson" data-source-line="16" data-uid="ent0005" id="entity_Euler . EulerPoisson"><rect fill="#F1F1F1" height="44" rx="2.5" ry="2.5" style="stroke:#181818;stroke-width:0.5;" width="166.8408" x="992" y="316.355"/><rect fill="#F1F1F1" height="10" style="stroke:#181818;stroke-width:0.5;" width="15" x="1138.8408" y="321.355"/><rect fill="#F1F1F1" height="2" style="stroke:#181818;stroke-width:0.5;" width="4" x="1136.8408" y="323.355"/><rect fill="#F1F1F1" height="2" style="stroke:#181818;stroke-width:0.5;" width="4" x="1136.8408" y="327.355"/><text fill="#000000" font-family="Helvetica" font-size="14" lengthAdjust="spacing" textLength="126.8408" x="1007" y="347.1353">Euler / EulerPoisson</text></g><!--entity State / Aux  (POD)--><g class="entity" data-entity="State . Aux  .POD." data-source-line="17" data-uid="ent0006" id="entity_State . Aux  .POD."><rect fill="#F1F1F1" height="44" rx="2.5" ry="2.5" style="stroke:#181818;stroke-width:0.5;" width="155.9238" x="1193.46" y="316.355"/><rect fill="#F1F1F1" height="10" style="stroke:#181818;stroke-width:0.5;" width="15" x="1329.3838" y="321.355"/><rect fill="#F1F1F1" height="2" style="stroke:#181818;stroke-width:0.5;" width="4" x="1327.3838" y="323.355"/><rect fill="#F1F1F1" height="2" style="stroke:#181818;stroke-width:0.5;" width="4" x="1327.3838" y="327.355"/><text fill="#000000" font-family="Helvetica" font-size="14" lengthAdjust="spacing" textLength="115.9238" x="1208.46" y="347.1353">State / Aux  (POD)</text></g><!--entity NumericalFlux  (Rusanov / HLL / HLLC)--><g class="entity" data-entity="NumericalFlux  .Rusanov . HLL . HLLC." data-source-line="21" data-uid="ent0008" id="entity_NumericalFlux  .Rusanov . HLL . HLLC."><rect fill="#F1F1F1" height="44" rx="2.5" ry="2.5" style="stroke:#181818;stroke-width:0.5;" width="286.6338" x="296.11" y="316.355"/><rect fill="#F1F1F1" height="10" style="stroke:#181818;stroke-width:0.5;" width="15" x="562.7438" y="321.355"/><rect fill="#F1F1F1" height="2" style="stroke:#181818;stroke-width:0.5;" width="4" x="560.7438" y="323.355"/><rect fill="#F1F1F1" height="2" style="stroke:#181818;stroke-width:0.5;" width="4" x="560.7438" y="327.355"/><text fill="#000000" font-family="Helvetica" font-size="14" lengthAdjust="spacing" textLength="246.6338" x="311.11" y="347.1353">NumericalFlux  (Rusanov / HLL / HLLC)</text></g><!--entity Reconstruction (MUSCL / WENO5)--><g class="entity" data-entity="Reconstruction .MUSCL . WENO5." data-source-line="22" data-uid="ent0009" id="entity_Reconstruction .MUSCL . WENO5."><rect fill="#F1F1F1" height="44" rx="2.5" ry="2.5" style="stroke:#181818;stroke-width:0.5;" width="258.6064" x="618.12" y="316.355"/><rect fill="#F1F1F1" height="10" style="stroke:#181818;stroke-width:0.5;" width="15" x="856.7264" y="321.355"/><rect fill="#F1F1F1" height="2" style="stroke:#181818;stroke-width:0.5;" width="4" x="854.7264" y="323.355"/><rect fill="#F1F1F1" height="2" style="stroke:#181818;stroke-width:0.5;" width="4" x="854.7264" y="327.355"/><text fill="#000000" font-family="Helvetica" font-size="14" lengthAdjust="spacing" textLength="218.6064" x="633.12" y="347.1353">Reconstruction (MUSCL / WENO5)</text></g><!--entity assemble_rhs : R = -div F + S--><g class="entity" data-entity="assemble_rhs . R . -div F . S" data-source-line="23" data-uid="ent0010" id="entity_assemble_rhs . R . -div F . S"><rect fill="#F1F1F1" height="44" rx="2.5" ry="2.5" style="stroke:#181818;stroke-width:0.5;" width="225.1787" x="326.84" y="505.355"/><rect fill="#F1F1F1" height="10" style="stroke:#181818;stroke-width:0.5;" width="15" x="532.0187" y="510.355"/><rect fill="#F1F1F1" height="2" style="stroke:#181818;stroke-width:0.5;" width="4" x="530.0187" y="512.355"/><rect fill="#F1F1F1" height="2" style="stroke:#181818;stroke-width:0.5;" width="4" x="530.0187" y="516.355"/><text fill="#000000" font-family="Helvetica" font-size="14" lengthAdjust="spacing" textLength="185.1787" x="341.84" y="536.1353">assemble_rhs : R = -div F + S</text></g><!--entity MultiFab / Fab2D--><g class="entity" data-entity="MultiFab . Fab2D" data-source-line="27" data-uid="ent0012" id="entity_MultiFab . Fab2D"><rect fill="#F1F1F1" height="44" rx="2.5" ry="2.5" style="stroke:#181818;stroke-width:0.5;" width="147.3721" x="1523.74" y="316.355"/><rect fill="#F1F1F1" height="10" style="stroke:#181818;stroke-width:0.5;" width="15" x="1651.1121" y="321.355"/><rect fill="#F1F1F1" height="2" style="stroke:#181818;stroke-width:0.5;" width="4" x="1649.1121" y="323.355"/><rect fill="#F1F1F1" height="2" style="stroke:#181818;stroke-width:0.5;" width="4" x="1649.1121" y="327.355"/><text fill="#000000" font-family="Helvetica" font-size="14" lengthAdjust="spacing" textLength="107.3721" x="1538.74" y="347.1353">MultiFab / Fab2D</text></g><!--entity BoxArray / DistributionMapping--><g class="entity" data-entity="BoxArray . DistributionMapping" data-source-line="28" data-uid="ent0013" id="entity_BoxArray . DistributionMapping"><rect fill="#F1F1F1" height="44" rx="2.5" ry="2.5" style="stroke:#181818;stroke-width:0.5;" width="232.9717" x="1705.94" y="316.355"/><rect fill="#F1F1F1" height="10" style="stroke:#181818;stroke-width:0.5;" width="15" x="1918.9117" y="321.355"/><rect fill="#F1F1F1" height="2" style="stroke:#181818;stroke-width:0.5;" width="4" x="1916.9117" y="323.355"/><rect fill="#F1F1F1" height="2" style="stroke:#181818;stroke-width:0.5;" width="4" x="1916.9117" y="327.355"/><text fill="#000000" font-family="Helvetica" font-size="14" lengthAdjust="spacing" textLength="192.9717" x="1720.94" y="347.1353">BoxArray / DistributionMapping</text></g><!--entity AMR : hierarchie, clustering, regrid--><g class="entity" data-entity="AMR . hierarchie. clustering. regrid" data-source-line="29" data-uid="ent0014" id="entity_AMR . hierarchie. clustering. regrid"><rect fill="#F1F1F1" height="44" rx="2.5" ry="2.5" style="stroke:#181818;stroke-width:0.5;" width="255.5234" x="1523.66" y="505.355"/><rect fill="#F1F1F1" height="10" style="stroke:#181818;stroke-width:0.5;" width="15" x="1759.1834" y="510.355"/><rect fill="#F1F1F1" height="2" style="stroke:#181818;stroke-width:0.5;" width="4" x="1757.1834" y="512.355"/><rect fill="#F1F1F1" height="2" style="stroke:#181818;stroke-width:0.5;" width="4" x="1757.1834" y="516.355"/><text fill="#000000" font-family="Helvetica" font-size="14" lengthAdjust="spacing" textLength="215.5234" x="1538.66" y="536.1353">AMR : hierarchie, clustering, regrid</text></g><!--entity for_each_cell  <<seam>>--><g class="entity" data-entity="for_each_cell  ..seam.." data-source-line="33" data-uid="ent0016" id="entity_for_each_cell  ..seam.."><rect fill="#F1F1F1" height="44" rx="2.5" ry="2.5" style="stroke:#181818;stroke-width:0.5;" width="180.8613" x="992.99" y="505.355"/><rect fill="#F1F1F1" height="10" style="stroke:#181818;stroke-width:0.5;" width="15" x="1153.8513" y="510.355"/><rect fill="#F1F1F1" height="2" style="stroke:#181818;stroke-width:0.5;" width="4" x="1151.8513" y="512.355"/><rect fill="#F1F1F1" height="2" style="stroke:#181818;stroke-width:0.5;" width="4" x="1151.8513" y="516.355"/><text fill="#000000" font-family="Helvetica" font-size="14" lengthAdjust="spacing" textLength="140.8613" x="1007.99" y="536.1353">for_each_cell  &#171;seam&#187;</text></g><!--entity comm (MPI)     <<seam>>--><g class="entity" data-entity="comm .MPI.     ..seam.." data-source-line="34" data-uid="ent0017" id="entity_comm .MPI.     ..seam.."><rect fill="#F1F1F1" height="44" rx="2.5" ry="2.5" style="stroke:#181818;stroke-width:0.5;" width="185.4688" x="1208.69" y="505.355"/><rect fill="#F1F1F1" height="10" style="stroke:#181818;stroke-width:0.5;" width="15" x="1374.1588" y="510.355"/><rect fill="#F1F1F1" height="2" style="stroke:#181818;stroke-width:0.5;" width="4" x="1372.1588" y="512.355"/><rect fill="#F1F1F1" height="2" style="stroke:#181818;stroke-width:0.5;" width="4" x="1372.1588" y="516.355"/><text fill="#000000" font-family="Helvetica" font-size="14" lengthAdjust="spacing" textLength="145.4688" x="1223.69" y="536.1353">comm (MPI)     &#171;seam&#187;</text></g><!--entity allocator      <<seam>>--><g class="entity" data-entity="allocator      ..seam.." data-source-line="35" data-uid="ent0018" id="entity_allocator      ..seam.."><rect fill="#F1F1F1" height="44" rx="2.5" ry="2.5" style="stroke:#181818;stroke-width:0.5;" width="166.0615" x="1000.39" y="628.355"/><rect fill="#F1F1F1" height="10" style="stroke:#181818;stroke-width:0.5;" width="15" x="1146.4515" y="633.355"/><rect fill="#F1F1F1" height="2" style="stroke:#181818;stroke-width:0.5;" width="4" x="1144.4515" y="635.355"/><rect fill="#F1F1F1" height="2" style="stroke:#181818;stroke-width:0.5;" width="4" x="1144.4515" y="639.355"/><text fill="#000000" font-family="Helvetica" font-size="14" lengthAdjust="spacing" textLength="126.0615" x="1015.39" y="659.1353">allocator      &#171;seam&#187;</text></g><!--entity SSP-RK / IMEX / splitting--><g class="entity" data-entity="SSP-RK . IMEX . splitting" data-source-line="39" data-uid="ent0020" id="entity_SSP-RK . IMEX . splitting"><rect fill="#F1F1F1" height="44" rx="2.5" ry="2.5" style="stroke:#181818;stroke-width:0.5;" width="197.1582" x="2045.85" y="145.355"/><rect fill="#F1F1F1" height="10" style="stroke:#181818;stroke-width:0.5;" width="15" x="2223.0082" y="150.355"/><rect fill="#F1F1F1" height="2" style="stroke:#181818;stroke-width:0.5;" width="4" x="2221.0082" y="152.355"/><rect fill="#F1F1F1" height="2" style="stroke:#181818;stroke-width:0.5;" width="4" x="2221.0082" y="156.355"/><text fill="#000000" font-family="Helvetica" font-size="14" lengthAdjust="spacing" textLength="157.1582" x="2060.85" y="176.1353">SSP-RK / IMEX / splitting</text></g><!--entity Coupler--><g class="entity" data-entity="Coupler" data-source-line="40" data-uid="ent0021" id="entity_Coupler"><rect fill="#F1F1F1" height="44" rx="2.5" ry="2.5" style="stroke:#181818;stroke-width:0.5;" width="89.0273" x="2277.91" y="145.355"/><rect fill="#F1F1F1" height="10" style="stroke:#181818;stroke-width:0.5;" width="15" x="2346.9373" y="150.355"/><rect fill="#F1F1F1" height="2" style="stroke:#181818;stroke-width:0.5;" width="4" x="2344.9373" y="152.355"/><rect fill="#F1F1F1" height="2" style="stroke:#181818;stroke-width:0.5;" width="4" x="2344.9373" y="156.355"/><text fill="#000000" font-family="Helvetica" font-size="14" lengthAdjust="spacing" textLength="49.0273" x="2292.91" y="176.1353">Coupler</text></g><!--entity AmrCouplerMP--><g class="entity" data-entity="AmrCouplerMP" data-source-line="41" data-uid="ent0022" id="entity_AmrCouplerMP"><rect fill="#F1F1F1" height="44" rx="2.5" ry="2.5" style="stroke:#181818;stroke-width:0.5;" width="135.6895" x="2076.58" y="316.355"/><rect fill="#F1F1F1" height="10" style="stroke:#181818;stroke-width:0.5;" width="15" x="2192.2695" y="321.355"/><rect fill="#F1F1F1" height="2" style="stroke:#181818;stroke-width:0.5;" width="4" x="2190.2695" y="323.355"/><rect fill="#F1F1F1" height="2" style="stroke:#181818;stroke-width:0.5;" width="4" x="2190.2695" y="327.355"/><text fill="#000000" font-family="Helvetica" font-size="14" lengthAdjust="spacing" textLength="95.6895" x="2091.58" y="347.1353">AmrCouplerMP</text></g><g class="entity" data-entity="GMN30" data-source-line="53" data-uid="ent0031" id="entity_GMN30"><path d="M1986.84,496.355 L1986.84,558.355 L2234.0197,558.355 L2234.0197,506.355 L2224.0197,496.355 L1986.84,496.355" fill="#FEFFDD" style="stroke:#181818;stroke-width:0.5;"/><path d="M2224.0197,496.355 L2224.0197,506.355 L2234.0197,506.355 L2224.0197,496.355" fill="#FEFFDD" style="stroke:#181818;stroke-width:1;"/><text fill="#000000" font-family="Helvetica" font-size="13" lengthAdjust="spacing" textLength="194.3652" x="1992.84" y="511.3653">Les seams isolent le parallelisme.</text><text fill="#000000" font-family="Helvetica" font-size="13" lengthAdjust="spacing" textLength="226.1797" x="1992.84" y="524.3653">Changer de backend (serie / OpenMP /</text><text fill="#000000" font-family="Helvetica" font-size="13" lengthAdjust="spacing" textLength="191.458" x="1992.84" y="537.3653">Kokkos / MPI) ne touche AUCUN</text><text fill="#000000" font-family="Helvetica" font-size="13" lengthAdjust="spacing" textLength="169.8252" x="1992.84" y="550.3653">operateur des couches 1-3-5.</text></g><g class="entity" data-entity="GMN33" data-source-line="60" data-uid="ent0034" id="entity_GMN33"><path d="M6,307.355 L6,369.355 L248.8506,369.355 L248.8506,317.355 L238.8506,307.355 L6,307.355" fill="#FEFFDD" style="stroke:#181818;stroke-width:0.5;"/><path d="M238.8506,307.355 L238.8506,317.355 L248.8506,317.355 L238.8506,307.355" fill="#FEFFDD" style="stroke:#181818;stroke-width:1;"/><text fill="#000000" font-family="Helvetica" font-size="13" lengthAdjust="spacing" textLength="204.8135" x="12" y="322.3653">On n'ecrit QUE la couche 1 pour un</text><text fill="#000000" font-family="Helvetica" font-size="13" lengthAdjust="spacing" textLength="183.1997" x="12" y="335.3653">nouveau probleme (~30 lignes).</text><text fill="#000000" font-family="Helvetica" font-size="13" lengthAdjust="spacing" textLength="221.8506" x="12" y="348.3653">Les couches 2-5 sont des composants</text><text fill="#000000" font-family="Helvetica" font-size="13" lengthAdjust="spacing" textLength="192.207" x="12" y="361.3653">existants instancies par template.</text></g><!--link L1 to L2--><g class="link" data-entity-1="L1" data-entity-2="L2" data-source-line="44" data-uid="lnk23" id="link_L1_L2"><path d="M960.3159,181.4898 C960.1559,181.7617 959.9945,182.0367 959.8317,182.3147 C959.1807,183.4269 958.5086,184.588 957.8213,185.7913 C952.3225,195.4175 945.85,207.745 941.43,219.355 C936.6975,231.775 932.5375,245.2281 928.9548,258.4538 C927.1635,265.0666 925.5165,271.6225 924.0145,277.964 C923.2634,281.1347 922.5487,284.2519 921.8702,287.2957 C921.5309,288.8176 921.2008,290.3212 920.8797,291.804 C920.7994,292.1747 920.7197,292.5441 920.6406,292.9121 C920.601,293.0961 921.8185,287.413 921.7792,287.5963" fill="none" id="L1-to-L2" style="stroke:#444444;stroke-width:1;stroke-dasharray:7,7;"/><polygon fill="#444444" points="920.5223,293.4632,926.3189,285.5008,921.5698,288.5741,918.4965,283.8249,920.5223,293.4632" style="stroke:#444444;stroke-width:1;"/><text fill="#000000" font-family="Helvetica" font-size="13" lengthAdjust="spacing" textLength="33.2363" x="942.43" y="230.3653">utilise</text></g><!--link L2 to L3--><g class="link" data-entity-1="L2" data-entity-2="L3" data-source-line="45" data-uid="lnk24" id="link_L2_L3"><path d="M920.4565,315.5942 C920.5111,315.4619 920.566,315.3292 920.6211,315.1961 C920.8418,314.664 921.0671,314.126 921.297,313.5825 C921.7569,312.4955 922.2354,311.3866 922.7326,310.2588 C924.7216,305.7476 927.0109,300.9334 929.6113,296.0063 C940.0125,276.2975 955.39,254.78 976.43,243.605 C1023.03,218.845 1407.84,213.835 1451.43,243.605 C1460.1775,249.58 1466.8569,257.9588 1471.957,267.2864 C1474.5071,271.9502 1476.6624,276.8513 1478.484,281.8077 C1478.9394,283.0468 1479.3739,284.2894 1479.7885,285.5326 C1479.9959,286.1542 1478.3813,281.0576 1478.5788,281.6792" fill="none" id="L2-to-L3" style="stroke:#444444;stroke-width:1;stroke-dasharray:7,7;"/><polygon fill="#444444" points="1480.3957,287.3975,1481.4825,277.6088,1478.8816,282.6322,1473.8581,280.0313,1480.3957,287.3975" style="stroke:#444444;stroke-width:1;"/><text fill="#000000" font-family="Helvetica" font-size="13" lengthAdjust="spacing" textLength="54.9199" x="1398.43" y="230.3653">opere sur</text></g><!--link L2 to L4--><g class="link" data-entity-1="L2" data-entity-2="L4" data-source-line="46" data-uid="lnk25" id="link_L2_L4"><path d="M920.5129,350.9439 C920.5735,351.0247 920.6344,351.1059 920.6955,351.1873 C920.8179,351.3503 920.9415,351.5144 921.0663,351.6797 C922.0649,353.0019 923.1415,354.3986 924.2919,355.853 C926.5927,358.762 929.1881,361.9025 932.0425,365.1425 C943.46,378.1025 959.02,392.655 976.43,400.355 C987.48,405.245 1401.36,423.365 1410.43,431.355 C1414.405,434.8575 1417.6894,438.9364 1420.3929,443.3968 C1421.0688,444.5119 1421.7083,445.6509 1422.3133,446.8106 C1422.389,446.9556 1419.7298,441.7601 1419.8044,441.9057" fill="none" id="L2-to-L4" style="stroke:#444444;stroke-width:1;stroke-dasharray:7,7;"/><polygon fill="#444444" points="1422.5386,447.2465,1421.9978,437.4125,1420.2601,442.7959,1414.8768,441.0581,1422.5386,447.2465" style="stroke:#444444;stroke-width:1;"/><text fill="#000000" font-family="Helvetica" font-size="13" lengthAdjust="spacing" textLength="68.6499" x="1326.33" y="419.3653">dispatch via</text></g><!--link L3 to L4--><g class="link" data-entity-1="L3" data-entity-2="L4" data-source-line="47" data-uid="lnk26" id="link_L3_L4"><path d="M1480.3654,357.7219 C1480.2776,357.901 1480.189,358.0808 1480.0998,358.2614 C1479.3862,359.7061 1478.63,361.2006 1477.8325,362.7325 C1471.4525,374.9875 1462.43,389.635 1451.43,400.355 C1446.29,405.355 1441.23,402.285 1437.43,408.355 C1430.56,419.3175 1426.5863,432.0306 1424.4994,444.9689 C1424.4342,445.3732 1424.3708,445.7778 1424.3092,446.1825 C1424.2784,446.3848 1425.1242,440.6515 1425.0943,440.854" fill="none" id="L3-to-L4" style="stroke:#444444;stroke-width:1;stroke-dasharray:7,7;"/><polygon fill="#444444" points="1424.2182,446.7897,1429.4895,438.4702,1424.9483,441.8433,1421.5752,437.3021,1424.2182,446.7897" style="stroke:#444444;stroke-width:1;"/><text fill="#000000" font-family="Helvetica" font-size="13" lengthAdjust="spacing" textLength="68.6499" x="1438.43" y="419.3653">dispatch via</text></g><!--link L5 to L2--><g class="link" data-entity-1="L5" data-entity-2="L2" data-source-line="48" data-uid="lnk27" id="link_L5_L2"><path d="M2002.3498,168.1246 C2002.1392,168.1194 2001.9245,168.1142 2001.706,168.109 C1999.9576,168.0671 1997.9583,168.0229 1995.7192,167.9788 C1986.763,167.8025 1973.9701,167.6284 1958.0483,167.6163 C1926.2047,167.5919 1881.8456,168.215 1830.6338,170.7625 C1728.21,175.8575 1598.375,188.65 1486.43,219.355 C1471.28,223.505 1469.73,230.815 1454.43,234.355 C1428.55,240.345 999.77,229.685 976.43,242.355 C954.405,254.31 938.555,277.51 928.1375,297.99 C925.5331,303.11 923.2683,308.06 921.3314,312.6218 C921.0893,313.192 920.8523,313.7562 920.6204,314.3138 C920.5624,314.4533 922.7983,309.0479 922.741,309.1865" fill="none" id="L5-to-L2" style="stroke:#444444;stroke-width:1;stroke-dasharray:7,7;"/><polygon fill="#444444" points="920.4474,314.7309,927.584,307.9434,922.3587,310.1106,920.1915,304.8853,920.4474,314.7309" style="stroke:#444444;stroke-width:1;"/><text fill="#000000" font-family="Helvetica" font-size="13" lengthAdjust="spacing" textLength="126.4644" x="1487.43" y="230.3653">appelle assemble_rhs</text></g><!--link L5 to L3--><g class="link" data-entity-1="L5" data-entity-2="L3" data-source-line="49" data-uid="lnk28" id="link_L5_L3"><path d="M2002.2283,170.0593 C2001.8734,170.1326 2001.5077,170.2081 2001.1311,170.2858 C2000.3779,170.4411 1999.5814,170.6051 1998.7426,170.7775 C1992.0323,172.1567 1982.6123,174.0744 1970.9578,176.4006 C1947.6488,181.0531 1915.4013,187.34 1878.015,194.2225 C1803.2425,207.9875 1707.915,224.135 1622.43,234.355 C1609.71,235.875 1517.04,233.895 1507.43,242.355 C1503.4513,245.8538 1500.1639,249.9298 1497.4581,254.3882 C1496.7816,255.5028 1496.1415,256.6413 1495.536,257.8006 C1495.4603,257.9456 1498.1219,252.7513 1498.0473,252.8969" fill="none" id="L5-to-L3" style="stroke:#444444;stroke-width:1;stroke-dasharray:7,7;"/><polygon fill="#444444" points="1495.3106,258.2364,1502.9753,252.0516,1497.5912,253.7868,1495.856,248.4026,1495.3106,258.2364" style="stroke:#444444;stroke-width:1;"/><text fill="#000000" font-family="Helvetica" font-size="13" lengthAdjust="spacing" textLength="113.458" x="1730.47" y="230.3653">detient la hierarchie</text></g><!--link L5 to L1--><g class="link" data-entity-1="L5" data-entity-2="L1" data-source-line="50" data-uid="lnk29" id="link_L5_L1"><path d="M2002.3896,165.9651 C2001.6411,165.8363 2000.8423,165.6991 1999.9939,165.5536 C1998.2973,165.2626 1996.4027,164.9383 1994.3167,164.5822 C1985.9727,163.1579 1974.5665,161.2255 1960.5202,158.8802 C1932.4276,154.1896 1893.7746,147.8476 1847.938,140.617 C1756.2647,126.1559 1635.8569,108.1406 1513.7288,92.6738 C1269.4725,61.74 1018.335,41 976.43,79.275 C974.7288,80.8281 973.1994,82.5016 971.8276,84.2761 C971.1417,85.1633 973.7688,81.0475 973.1599,81.9828" fill="none" id="L5-to-L1" style="stroke:#444444;stroke-width:1;stroke-dasharray:7,7;"/><polygon fill="#444444" points="969.8863,87.0111,978.1488,81.6511,972.6143,82.8209,971.4445,77.2863,969.8863,87.0111" style="stroke:#444444;stroke-width:1;"/><text fill="#000000" font-family="Helvetica" font-size="13" lengthAdjust="spacing" textLength="91.0571" x="1443.93" y="59.3653">pilote le modele</text></g><!--link L4 to GMN30--><g class="link" data-entity-1="L4" data-entity-2="GMN30" data-source-line="53" data-uid="lnk32" id="link_L4_GMN30"><path d="M1437.4441,509.7809 C1437.5141,509.641 1437.5845,509.5005 1437.6553,509.3594 C1442.1888,500.3275 1448.5513,488.765 1456.635,476.75 C1472.8025,452.72 1495.855,426.88 1524.93,415.855 C1567.73,399.625 1893,402.955 1936.93,415.855 C1990,431.445 2042.21,468.825 2075.26,496.025" fill="none" id="L4-GMN30" style="stroke:#444444;stroke-width:1;stroke-dasharray:7,7;"/></g><!--link L1 to GMN33--><g class="link" data-entity-1="L1" data-entity-2="GMN33" data-source-line="60" data-uid="lnk35" id="link_L1_GMN33"><path d="M959.9625,168.7435 C959.6723,168.7573 959.375,168.7714 959.0706,168.7859 C958.4619,168.8149 957.8249,168.8453 957.1601,168.8772 C955.8306,168.9409 954.39,169.0105 952.8417,169.0858 C949.7452,169.2366 946.2181,169.4105 942.2885,169.6078 C926.5701,170.3968 904.4114,171.5586 877.6053,173.0972 C823.9931,176.1744 751.7913,180.7588 675.3425,186.8825 C522.445,199.13 352.56,217.535 280.43,242.355 C238,256.955 195.06,285.035 165.52,306.895" fill="none" id="L1-GMN33" style="stroke:#444444;stroke-width:1;stroke-dasharray:7,7;"/></g><!--SRC=[TLJRRkCs47tNLmoo3xQniNOTsqMos0R8-e9TR9ouTjCMA1O1JKqa8XIfa9GtGT5-Um_bI-nUz229dCEPmvapqw9VQgQinSPpkT9C7qYp9wdC4qbRom8Bwq9XSsj4jBnjx9v5wTEaHGkkhCb8qCbJRHKvzhOENMk80ywN9HjyM-m3lEJ2ACydQP845H1APF9ULXLrkoISB5HW6Mh7n6OVkhq6kqh8Hv5p9qdyepALSABSxIt32nmv71Gcrtm0y8N8x7TbSdeGsXzQCduGjGvJQyADA9a-irvpK58SOAwSizz7Lbj7RmRDy-_Od_39dQrDjWLE1zCVfkV_0RGkOxS5lJyVzYv6IRArqKalfNdnujKJRjhMLWfz2efh9RcBVorGbCu92K_NFNepwKycqtFw8o7wlJa5oCnch8a-VfJMIAx2vUMtQ1uhAsrmrZIhIQtPqJjgldEhlDyQba44Xk6gVYPgps_7dM_9dmVqpbAwgKjs6twPyj8XMLu4PSsMrzanhmqSnAQwyRcelJ1sZHYVhwytxr6dYRrWKFR1rJ9we_RiRZcAY5ydDxV33KJuZIxlNU6XpGNzIDrChMaA8IwFcVPJ6bjZk15fAHHob_E6OV-OuGpbLrEnGYYypyPDf4_s6LKNBzWSAv1IgpgocecgWeeQoDLi0Gw5OjVebKz9wje7tDRafr1XxbHsp6cGqkIPPRsvtmhRt7IB5h4xAgKFypY0XCQJYyd5XkM3TVSiP74lMJVrZKstBMviBUHh_gL3yJcoGJHGKO3O_c4x93PCwMSkgvWgz5hrcghXSQgMotbtyHKv-JAR_8QFhxGAOPUGKJpARfESqcsNitaJ2tfDqyieZm-416ZqVe95izV7dgqOpUvhjzyTO1SAgqIG1QsLI83x7yFmrJSAX0HXd1n8PG-8WJ88DiuX9FsrTdj43mWKmg8BuAICpSH9OkBQgRp0u7e00TpmUZVtI7ch6uTnDZdact6vabE0HWK64JejOzfLk-qXaDXYjnMRsPpU0VRLFZvQZxscX8OfD0EFhkv6TpUmnzoWB-leoE-dOQ_RxmxJ93gD_BOiLpO4MpOqUpXwQyYqM3eLwAUxoKPfZUyULHOEQmEGiVMQHKsLiyWOXc3xh_vxqYetx3lfzhAxi6VT8M5SX2sNih9ewE21ucTqIlmdPUAFL40W9HIWBMYR3yZ-3G00]--></g></svg>