<svg xmlns="http://www.w3.org/2000/svg" xmlns:xlink="http://www.w3.org/1999/xlink" contentStyleType="text/css" data-diagram-type="CLASS" height="843px" preserveAspectRatio="none" style="width:1697px;height:843px;background:#FFFFFF;" version="1.1" viewBox="0 0 1697 843" width="1697px" zoomAndPan="magnify"><title>adc_cpp -- diagramme de classes (abstractions cle)</title><defs/><g><g class="title" data-source-line="5"><text fill="#000000" font-family="Helvetica" font-size="14" font-weight="bold" lengthAdjust="spacing" textLength="343.1367" x="670.3837" y="20.7803">adc_cpp -- diagramme de classes (abstractions cle)</text></g><!--class PM--><g class="entity" data-entity="PM" data-source-line="15" data-uid="ent0002" id="entity_PM"><rect fill="#F4F6F8" height="124" rx="2.5" ry="2.5" style="stroke:#08519C;stroke-width:0.5;" width="252.4336" x="253.12" y="319"/><ellipse cx="329.9559" cy="338" fill="#B4A7E5" rx="11" ry="11" style="stroke:#181818;stroke-width:1;"/><path d="M326.3837,334.2651 L326.3837,332.1069 L333.7631,332.1069 L333.7631,334.2651 L331.2977,334.2651 L331.2977,342.3418 L333.7631,342.3418 L333.7631,344.5 L326.3837,344.5 L326.3837,342.3418 L328.849,342.3418 L328.849,334.2651 Z " fill="#000000"/><text fill="#000000" font-family="Helvetica" font-size="14" font-style="italic" lengthAdjust="spacing" textLength="90.2617" x="350.4559" y="334.7803">PhysicalModel</text><text fill="#000000" font-family="Helvetica" font-size="14" font-style="italic" lengthAdjust="spacing" textLength="64.6064" x="363.2836" y="348.7803">&#171;concept&#187;</text><line style="stroke:#08519C;stroke-width:0.5;" x1="254.12" x2="504.5536" y1="357" y2="357"/><ellipse cx="264.12" cy="369.5" fill="none" rx="3" ry="3" style="stroke:#038048;stroke-width:1;"/><text fill="#000000" font-family="Helvetica" font-size="14" lengthAdjust="spacing" textLength="114.3926" x="273.12" y="371.7803">State, Aux, n_vars</text><line style="stroke:#08519C;stroke-width:0.5;" x1="254.12" x2="504.5536" y1="379" y2="379"/><ellipse cx="264.12" cy="391.5" fill="#84BE84" rx="3" ry="3" style="stroke:#038048;stroke-width:1;"/><text fill="#000000" font-family="Helvetica" font-size="14" lengthAdjust="spacing" textLength="139.2686" x="273.12" y="393.7803">flux(U, aux, dir) : State</text><ellipse cx="264.12" cy="405.5" fill="#84BE84" rx="3" ry="3" style="stroke:#038048;stroke-width:1;"/><text fill="#000000" font-family="Helvetica" font-size="14" lengthAdjust="spacing" textLength="226.4336" x="273.12" y="407.7803">max_wave_speed(U, aux, dir) : Real</text><ellipse cx="264.12" cy="419.5" fill="#84BE84" rx="3" ry="3" style="stroke:#038048;stroke-width:1;"/><text fill="#000000" font-family="Helvetica" font-size="14" lengthAdjust="spacing" textLength="136.165" x="273.12" y="421.7803">source(U, aux) : State</text><ellipse cx="264.12" cy="433.5" fill="#84BE84" rx="3" ry="3" style="stroke:#038048;stroke-width:1;"/><text fill="#000000" font-family="Helvetica" font-size="14" lengthAdjust="spacing" textLength="126.0342" x="273.12" y="435.7803">elliptic_rhs(U) : Real</text></g><!--class ES--><g class="entity" data-entity="ES" data-source-line="23" data-uid="ent0003" id="entity_ES"><rect fill="#F4F6F8" height="116" rx="2.5" ry="2.5" style="stroke:#08519C;stroke-width:0.5;" width="152.8135" x="1186.93" y="323"/><ellipse cx="1220.2341" cy="342" fill="#B4A7E5" rx="11" ry="11" style="stroke:#181818;stroke-width:1;"/><path d="M1216.6618,338.2651 L1216.6618,336.1069 L1224.0412,336.1069 L1224.0412,338.2651 L1221.5759,338.2651 L1221.5759,346.3418 L1224.0412,346.3418 L1224.0412,348.5 L1216.6618,348.5 L1216.6618,346.3418 L1219.1272,346.3418 L1219.1272,338.2651 Z " fill="#000000"/><text fill="#000000" font-family="Helvetica" font-size="14" font-style="italic" lengthAdjust="spacing" textLength="80.1377" x="1238.3017" y="338.7803">EllipticSolver</text><text fill="#000000" font-family="Helvetica" font-size="14" font-style="italic" lengthAdjust="spacing" textLength="64.6064" x="1246.0673" y="352.7803">&#171;concept&#187;</text><line style="stroke:#08519C;stroke-width:0.5;" x1="1187.93" x2="1338.7435" y1="361" y2="361"/><ellipse cx="1197.93" cy="373.5" fill="#84BE84" rx="3" ry="3" style="stroke:#038048;stroke-width:1;"/><text fill="#000000" font-family="Helvetica" font-size="14" lengthAdjust="spacing" textLength="103.4619" x="1206.93" y="375.7803">rhs() : MultiFab&amp;</text><ellipse cx="1197.93" cy="387.5" fill="#84BE84" rx="3" ry="3" style="stroke:#038048;stroke-width:1;"/><text fill="#000000" font-family="Helvetica" font-size="14" lengthAdjust="spacing" textLength="102.6963" x="1206.93" y="389.7803">phi() : MultiFab&amp;</text><ellipse cx="1197.93" cy="401.5" fill="#84BE84" rx="3" ry="3" style="stroke:#038048;stroke-width:1;"/><text fill="#000000" font-family="Helvetica" font-size="14" lengthAdjust="spacing" textLength="42.0068" x="1206.93" y="403.7803">solve()</text><ellipse cx="1197.93" cy="415.5" fill="#84BE84" rx="3" ry="3" style="stroke:#038048;stroke-width:1;"/><text fill="#000000" font-family="Helvetica" font-size="14" lengthAdjust="spacing" textLength="98.8135" x="1206.93" y="417.7803">residual() : Real</text><ellipse cx="1197.93" cy="429.5" fill="#84BE84" rx="3" ry="3" style="stroke:#038048;stroke-width:1;"/><text fill="#000000" font-family="Helvetica" font-size="14" lengthAdjust="spacing" textLength="126.8135" x="1206.93" y="431.7803">geom() : Geometry&amp;</text></g><!--class Diocotron--><g class="entity" data-entity="Diocotron" data-source-line="32" data-uid="ent0004" id="entity_Diocotron"><rect fill="#F4F6F8" height="32" rx="2.5" ry="2.5" style="stroke:#08519C;stroke-width:0.5;" width="91.917" x="346.38" y="174"/><ellipse cx="361.38" cy="190" fill="#ADD1B2" rx="11" ry="11" style="stroke:#181818;stroke-width:1;"/><path d="M363.8531,196.1431 Q363.2721,196.4419 362.6329,196.5913 Q361.9938,196.7407 361.2882,196.7407 Q358.7814,196.7407 357.4615,195.0889 Q356.1417,193.437 356.1417,190.3159 Q356.1417,187.1865 357.4615,185.5347 Q358.7814,183.8828 361.2882,183.8828 Q361.9938,183.8828 362.6412,184.0322 Q363.2887,184.1816 363.8531,184.4805 L363.8531,187.2031 Q363.2223,186.6221 362.6288,186.3523 Q362.0353,186.0825 361.4044,186.0825 Q360.0597,186.0825 359.3749,187.1492 Q358.6901,188.2158 358.6901,190.3159 Q358.6901,192.4077 359.3749,193.4744 Q360.0597,194.541 361.4044,194.541 Q362.0353,194.541 362.6288,194.2712 Q363.2223,194.0015 363.8531,193.4204 Z " fill="#000000"/><text fill="#000000" font-family="Helvetica" font-size="14" lengthAdjust="spacing" textLength="59.917" x="375.38" y="193.7803">Diocotron</text></g><!--class Euler--><g class="entity" data-entity="Euler" data-source-line="33" data-uid="ent0005" id="entity_Euler"><rect fill="#F4F6F8" height="32" rx="2.5" ry="2.5" style="stroke:#08519C;stroke-width:0.5;" width="64.6826" x="7" y="174"/><ellipse cx="22" cy="190" fill="#ADD1B2" rx="11" ry="11" style="stroke:#181818;stroke-width:1;"/><path d="M24.4731,196.1431 Q23.8921,196.4419 23.2529,196.5913 Q22.6138,196.7407 21.9082,196.7407 Q19.4014,196.7407 18.0815,195.0889 Q16.7617,193.437 16.7617,190.3159 Q16.7617,187.1865 18.0815,185.5347 Q19.4014,183.8828 21.9082,183.8828 Q22.6138,183.8828 23.2612,184.0322 Q23.9087,184.1816 24.4731,184.4805 L24.4731,187.2031 Q23.8423,186.6221 23.2488,186.3523 Q22.6553,186.0825 22.0244,186.0825 Q20.6797,186.0825 19.9949,187.1492 Q19.3101,188.2158 19.3101,190.3159 Q19.3101,192.4077 19.9949,193.4744 Q20.6797,194.541 22.0244,194.541 Q22.6553,194.541 23.2488,194.2712 Q23.8423,194.0015 24.4731,193.4204 Z " fill="#000000"/><text fill="#000000" font-family="Helvetica" font-size="14" lengthAdjust="spacing" textLength="32.6826" x="36" y="193.7803">Euler</text></g><!--class EulerPoisson--><g class="entity" data-entity="EulerPoisson" data-source-line="34" data-uid="ent0006" id="entity_EulerPoisson"><rect fill="#F4F6F8" height="32" rx="2.5" ry="2.5" style="stroke:#08519C;stroke-width:0.5;" width="114.4893" x="208.1" y="42"/><ellipse cx="223.1" cy="58" fill="#ADD1B2" rx="11" ry="11" style="stroke:#181818;stroke-width:1;"/><path d="M225.5731,64.1431 Q224.9921,64.4419 224.3529,64.5913 Q223.7138,64.7407 223.0082,64.7407 Q220.5014,64.7407 219.1815,63.0889 Q217.8617,61.437 217.8617,58.3159 Q217.8617,55.1865 219.1815,53.5347 Q220.5014,51.8828 223.0082,51.8828 Q223.7138,51.8828 224.3612,52.0322 Q225.0087,52.1816 225.5731,52.4805 L225.5731,55.2031 Q224.9423,54.6221 224.3488,54.3523 Q223.7553,54.0825 223.1244,54.0825 Q221.7797,54.0825 221.0949,55.1492 Q220.4101,56.2158 220.4101,58.3159 Q220.4101,60.4077 221.0949,61.4744 Q221.7797,62.541 223.1244,62.541 Q223.7553,62.541 224.3488,62.2712 Q224.9423,62.0015 225.5731,61.4204 Z " fill="#000000"/><text fill="#000000" font-family="Helvetica" font-size="14" lengthAdjust="spacing" textLength="82.4893" x="237.1" y="61.7803">EulerPoisson</text></g><!--class GeometricMG--><g class="entity" data-entity="GeometricMG" data-source-line="41" data-uid="ent0011" id="entity_GeometricMG"><rect fill="#F4F6F8" height="32" rx="2.5" ry="2.5" style="stroke:#08519C;stroke-width:0.5;" width="119.124" x="1571.78" y="174"/><ellipse cx="1586.78" cy="190" fill="#ADD1B2" rx="11" ry="11" style="stroke:#181818;stroke-width:1;"/><path d="M1589.2531,196.1431 Q1588.6721,196.4419 1588.0329,196.5913 Q1587.3938,196.7407 1586.6882,196.7407 Q1584.1814,196.7407 1582.8615,195.0889 Q1581.5417,193.437 1581.5417,190.3159 Q1581.5417,187.1865 1582.8615,185.5347 Q1584.1814,183.8828 1586.6882,183.8828 Q1587.3938,183.8828 1588.0412,184.0322 Q1588.6887,184.1816 1589.2531,184.4805 L1589.2531,187.2031 Q1588.6223,186.6221 1588.0288,186.3523 Q1587.4353,186.0825 1586.8044,186.0825 Q1585.4597,186.0825 1584.7749,187.1492 Q1584.0901,188.2158 1584.0901,190.3159 Q1584.0901,192.4077 1584.7749,193.4744 Q1585.4597,194.541 1586.8044,194.541 Q1587.4353,194.541 1588.0288,194.2712 Q1588.6223,194.0015 1589.2531,193.4204 Z " fill="#000000"/><text fill="#000000" font-family="Helvetica" font-size="14" lengthAdjust="spacing" textLength="87.124" x="1600.78" y="193.7803">GeometricMG</text></g><!--class PoissonFFTSolver--><g class="entity" data-entity="PoissonFFTSolver" data-source-line="42" data-uid="ent0012" id="entity_PoissonFFTSolver"><rect fill="#F4F6F8" height="32" rx="2.5" ry="2.5" style="stroke:#08519C;stroke-width:0.5;" width="147.1445" x="1189.77" y="174"/><ellipse cx="1204.77" cy="190" fill="#ADD1B2" rx="11" ry="11" style="stroke:#181818;stroke-width:1;"/><path d="M1207.2431,196.1431 Q1206.6621,196.4419 1206.0229,196.5913 Q1205.3838,196.7407 1204.6782,196.7407 Q1202.1714,196.7407 1200.8515,195.0889 Q1199.5317,193.437 1199.5317,190.3159 Q1199.5317,187.1865 1200.8515,185.5347 Q1202.1714,183.8828 1204.6782,183.8828 Q1205.3838,183.8828 1206.0312,184.0322 Q1206.6787,184.1816 1207.2431,184.4805 L1207.2431,187.2031 Q1206.6123,186.6221 1206.0188,186.3523 Q1205.4253,186.0825 1204.7944,186.0825 Q1203.4497,186.0825 1202.7649,187.1492 Q1202.0801,188.2158 1202.0801,190.3159 Q1202.0801,192.4077 1202.7649,193.4744 Q1203.4497,194.541 1204.7944,194.541 Q1205.4253,194.541 1206.0188,194.2712 Q1206.6123,194.0015 1207.2431,193.4204 Z " fill="#000000"/><text fill="#000000" font-family="Helvetica" font-size="14" lengthAdjust="spacing" textLength="115.1445" x="1218.77" y="193.7803">PoissonFFTSolver</text></g><!--class DistributedFFTSolver--><g class="entity" data-entity="DistributedFFTSolver" data-source-line="43" data-uid="ent0013" id="entity_DistributedFFTSolver"><rect fill="#F4F6F8" height="32" rx="2.5" ry="2.5" style="stroke:#08519C;stroke-width:0.5;" width="164.2549" x="1372.21" y="174"/><ellipse cx="1387.21" cy="190" fill="#ADD1B2" rx="11" ry="11" style="stroke:#181818;stroke-width:1;"/><path d="M1389.6831,196.1431 Q1389.1021,196.4419 1388.4629,196.5913 Q1387.8238,196.7407 1387.1182,196.7407 Q1384.6114,196.7407 1383.2915,195.0889 Q1381.9717,193.437 1381.9717,190.3159 Q1381.9717,187.1865 1383.2915,185.5347 Q1384.6114,183.8828 1387.1182,183.8828 Q1387.8238,183.8828 1388.4712,184.0322 Q1389.1187,184.1816 1389.6831,184.4805 L1389.6831,187.2031 Q1389.0523,186.6221 1388.4588,186.3523 Q1387.8653,186.0825 1387.2344,186.0825 Q1385.8897,186.0825 1385.2049,187.1492 Q1384.5201,188.2158 1384.5201,190.3159 Q1384.5201,192.4077 1385.2049,193.4744 Q1385.8897,194.541 1387.2344,194.541 Q1387.8653,194.541 1388.4588,194.2712 Q1389.0523,194.0015 1389.6831,193.4204 Z " fill="#000000"/><text fill="#000000" font-family="Helvetica" font-size="14" lengthAdjust="spacing" textLength="132.2549" x="1401.21" y="193.7803">DistributedFFTSolver</text></g><!--class Coupler--><g class="entity" data-entity="Coupler" data-source-line="49" data-uid="ent0017" id="entity_Coupler"><rect fill="#F4F6F8" height="68" rx="2.5" ry="2.5" style="stroke:#08519C;stroke-width:0.5;" width="221.3027" x="669.69" y="156"/><ellipse cx="712.7016" cy="172" fill="#ADD1B2" rx="11" ry="11" style="stroke:#181818;stroke-width:1;"/><path d="M715.1748,178.1431 Q714.5937,178.4419 713.9546,178.5913 Q713.3154,178.7407 712.6098,178.7407 Q710.103,178.7407 708.7832,177.0889 Q707.4633,175.437 707.4633,172.3159 Q707.4633,169.1865 708.7832,167.5347 Q710.103,165.8828 712.6098,165.8828 Q713.3154,165.8828 713.9629,166.0322 Q714.6103,166.1816 715.1748,166.4805 L715.1748,169.2031 Q714.5439,168.6221 713.9504,168.3523 Q713.3569,168.0825 712.726,168.0825 Q711.3813,168.0825 710.6965,169.1492 Q710.0117,170.2158 710.0117,172.3159 Q710.0117,174.4077 710.6965,175.4744 Q711.3813,176.541 712.726,176.541 Q713.3569,176.541 713.9504,176.2712 Q714.5439,176.0015 715.1748,175.4204 Z " fill="#000000"/><text fill="#000000" font-family="Helvetica" font-size="14" lengthAdjust="spacing" textLength="49.0273" x="732.9264" y="175.7803">Coupler</text><rect fill="#F4F6F8" height="14" style="stroke:#08519C;stroke-width:1;stroke-dasharray:2,2;" width="76.0273" x="817.9654" y="153"/><text fill="#000000" font-family="Helvetica" font-size="12" font-style="italic" lengthAdjust="spacing" textLength="74.0273" x="818.9654" y="163.2402">Model, Elliptic</text><line style="stroke:#08519C;stroke-width:0.5;" x1="670.69" x2="889.9927" y1="188" y2="188"/><ellipse cx="680.69" cy="200.5" fill="#84BE84" rx="3" ry="3" style="stroke:#038048;stroke-width:1;"/><text fill="#000000" font-family="Helvetica" font-size="14" lengthAdjust="spacing" textLength="195.3027" x="689.69" y="202.7803">advance&lt;Limiter, Policy&gt;(U, dt)</text><rect fill="#F24D5C" height="6" style="stroke:#C82930;stroke-width:1;" width="6" x="677.69" y="211.5"/><text fill="#000000" font-family="Helvetica" font-size="14" lengthAdjust="spacing" textLength="92.6133" x="689.69" y="216.7803">update_aux(U)</text></g><!--class AmrCoupler--><g class="entity" data-entity="AmrCoupler" data-source-line="53" data-uid="ent0018" id="entity_AmrCoupler"><rect fill="#F4F6F8" height="82" rx="2.5" ry="2.5" style="stroke:#08519C;stroke-width:0.5;" width="205.7168" x="949.48" y="149"/><ellipse cx="964.48" cy="165" fill="#ADD1B2" rx="11" ry="11" style="stroke:#181818;stroke-width:1;"/><path d="M966.9531,171.1431 Q966.3721,171.4419 965.7329,171.5913 Q965.0938,171.7407 964.3882,171.7407 Q961.8814,171.7407 960.5615,170.0889 Q959.2417,168.437 959.2417,165.3159 Q959.2417,162.1865 960.5615,160.5347 Q961.8814,158.8828 964.3882,158.8828 Q965.0938,158.8828 965.7412,159.0322 Q966.3887,159.1816 966.9531,159.4805 L966.9531,162.2031 Q966.3223,161.6221 965.7288,161.3523 Q965.1353,161.0825 964.5044,161.0825 Q963.1597,161.0825 962.4749,162.1492 Q961.7901,163.2158 961.7901,165.3159 Q961.7901,167.4077 962.4749,168.4744 Q963.1597,169.541 964.5044,169.541 Q965.1353,169.541 965.7288,169.2712 Q966.3223,169.0015 966.9531,168.4204 Z " fill="#000000"/><text fill="#000000" font-family="Helvetica" font-size="14" lengthAdjust="spacing" textLength="95.6895" x="978.48" y="168.7803">AmrCouplerMP</text><rect fill="#F4F6F8" height="14" style="stroke:#08519C;stroke-width:1;stroke-dasharray:2,2;" width="76.0273" x="1082.1695" y="146"/><text fill="#000000" font-family="Helvetica" font-size="12" font-style="italic" lengthAdjust="spacing" textLength="74.0273" x="1083.1695" y="156.2402">Model, Elliptic</text><line style="stroke:#08519C;stroke-width:0.5;" x1="950.48" x2="1154.1968" y1="181" y2="181"/><ellipse cx="960.48" cy="193.5" fill="#84BE84" rx="3" ry="3" style="stroke:#038048;stroke-width:1;"/><text fill="#000000" font-family="Helvetica" font-size="14" lengthAdjust="spacing" textLength="47.4619" x="969.48" y="195.7803">step(dt)</text><ellipse cx="960.48" cy="207.5" fill="#84BE84" rx="3" ry="3" style="stroke:#038048;stroke-width:1;"/><text fill="#000000" font-family="Helvetica" font-size="14" lengthAdjust="spacing" textLength="63.7793" x="969.48" y="209.7803">regrid(crit)</text><ellipse cx="960.48" cy="221.5" fill="#84BE84" rx="3" ry="3" style="stroke:#038048;stroke-width:1;"/><text fill="#000000" font-family="Helvetica" font-size="14" lengthAdjust="spacing" textLength="83.2344" x="969.48" y="223.7803">mass() : Real</text></g><!--class MultiFab--><g class="entity" data-entity="MultiFab" data-source-line="61" data-uid="ent0021" id="entity_MultiFab"><rect fill="#F4F6F8" height="68" rx="2.5" ry="2.5" style="stroke:#08519C;stroke-width:0.5;" width="166.8203" x="782.93" y="675"/><ellipse cx="835.2488" cy="691" fill="#ADD1B2" rx="11" ry="11" style="stroke:#181818;stroke-width:1;"/><path d="M837.722,697.1431 Q837.1409,697.4419 836.5018,697.5913 Q835.8626,697.7407 835.1571,697.7407 Q832.6502,697.7407 831.3304,696.0889 Q830.0106,694.437 830.0106,691.3159 Q830.0106,688.1865 831.3304,686.5347 Q832.6502,684.8828 835.1571,684.8828 Q835.8626,684.8828 836.5101,685.0322 Q837.1575,685.1816 837.722,685.4805 L837.722,688.2031 Q837.0911,687.6221 836.4976,687.3523 Q835.9041,687.0825 835.2733,687.0825 Q833.9285,687.0825 833.2437,688.1492 Q832.5589,689.2158 832.5589,691.3159 Q832.5589,693.4077 833.2437,694.4744 Q833.9285,695.541 835.2733,695.541 Q835.9041,695.541 836.4976,695.2712 Q837.0911,695.0015 837.722,694.4204 Z " fill="#000000"/><text fill="#000000" font-family="Helvetica" font-size="14" lengthAdjust="spacing" textLength="53.6826" x="855.7488" y="694.7803">MultiFab</text><line style="stroke:#08519C;stroke-width:0.5;" x1="783.93" x2="948.7503" y1="707" y2="707"/><ellipse cx="793.93" cy="719.5" fill="#84BE84" rx="3" ry="3" style="stroke:#038048;stroke-width:1;"/><text fill="#000000" font-family="Helvetica" font-size="14" lengthAdjust="spacing" textLength="98.0342" x="802.93" y="721.7803">fab(li) : Fab2D&amp;</text><ellipse cx="793.93" cy="733.5" fill="#84BE84" rx="3" ry="3" style="stroke:#038048;stroke-width:1;"/><text fill="#000000" font-family="Helvetica" font-size="14" lengthAdjust="spacing" textLength="140.8203" x="802.93" y="735.7803">box_array() : BoxArray</text></g><!--class AmrLevelStack--><g class="entity" data-entity="AmrLevelStack" data-source-line="65" data-uid="ent0025" id="entity_AmrLevelStack"><rect fill="#F4F6F8" height="32" rx="2.5" ry="2.5" style="stroke:#08519C;stroke-width:0.5;" width="198.8281" x="931.93" y="365"/><ellipse cx="946.93" cy="381" fill="#ADD1B2" rx="11" ry="11" style="stroke:#181818;stroke-width:1;"/><path d="M949.4031,387.1431 Q948.8221,387.4419 948.1829,387.5913 Q947.5438,387.7407 946.8382,387.7407 Q944.3314,387.7407 943.0115,386.0889 Q941.6917,384.437 941.6917,381.3159 Q941.6917,378.1865 943.0115,376.5347 Q944.3314,374.8828 946.8382,374.8828 Q947.5438,374.8828 948.1912,375.0322 Q948.8387,375.1816 949.4031,375.4805 L949.4031,378.2031 Q948.7723,377.6221 948.1788,377.3523 Q947.5853,377.0825 946.9544,377.0825 Q945.6097,377.0825 944.9249,378.1492 Q944.2401,379.2158 944.2401,381.3159 Q944.2401,383.4077 944.9249,384.4744 Q945.6097,385.541 946.9544,385.541 Q947.5853,385.541 948.1788,385.2712 Q948.7723,385.0015 949.4031,384.4204 Z " fill="#000000"/><text fill="#000000" font-family="Helvetica" font-size="14" lengthAdjust="spacing" textLength="94.1445" x="960.93" y="384.7803">AmrLevelStack</text><rect fill="#F4F6F8" height="14" style="stroke:#08519C;stroke-width:1;stroke-dasharray:2,2;" width="70.6836" x="1063.0745" y="362"/><text fill="#000000" font-family="Helvetica" font-size="12" font-style="italic" lengthAdjust="spacing" textLength="68.6836" x="1064.0745" y="372.2402">AmrLevelMP</text></g><!--class Fab2D--><g class="entity" data-entity="Fab2D" data-source-line="72" data-uid="ent0027" id="entity_Fab2D"><rect fill="#F4F6F8" height="32" rx="2.5" ry="2.5" style="stroke:#08519C;stroke-width:0.5;" width="74.0205" x="712.33" y="804"/><ellipse cx="727.33" cy="820" fill="#ADD1B2" rx="11" ry="11" style="stroke:#181818;stroke-width:1;"/><path d="M729.8031,826.1431 Q729.2221,826.4419 728.5829,826.5913 Q727.9438,826.7407 727.2382,826.7407 Q724.7314,826.7407 723.4115,825.0889 Q722.0917,823.437 722.0917,820.3159 Q722.0917,817.1865 723.4115,815.5347 Q724.7314,813.8828 727.2382,813.8828 Q727.9438,813.8828 728.5912,814.0322 Q729.2387,814.1816 729.8031,814.4805 L729.8031,817.2031 Q729.1723,816.6221 728.5788,816.3523 Q727.9853,816.0825 727.3544,816.0825 Q726.0097,816.0825 725.3249,817.1492 Q724.6401,818.2158 724.6401,820.3159 Q724.6401,822.4077 725.3249,823.4744 Q726.0097,824.541 727.3544,824.541 Q727.9853,824.541 728.5788,824.2712 Q729.1723,824.0015 729.8031,823.4204 Z " fill="#000000"/><text fill="#000000" font-family="Helvetica" font-size="14" lengthAdjust="spacing" textLength="42.0205" x="741.33" y="823.7803">Fab2D</text></g><!--class BoxArray--><g class="entity" data-entity="BoxArray" data-source-line="73" data-uid="ent0028" id="entity_BoxArray"><rect fill="#F4F6F8" height="32" rx="2.5" ry="2.5" style="stroke:#08519C;stroke-width:0.5;" width="89.5723" x="821.56" y="804"/><ellipse cx="836.56" cy="820" fill="#ADD1B2" rx="11" ry="11" style="stroke:#181818;stroke-width:1;"/><path d="M839.0331,826.1431 Q838.4521,826.4419 837.8129,826.5913 Q837.1738,826.7407 836.4682,826.7407 Q833.9614,826.7407 832.6415,825.0889 Q831.3217,823.437 831.3217,820.3159 Q831.3217,817.1865 832.6415,815.5347 Q833.9614,813.8828 836.4682,813.8828 Q837.1738,813.8828 837.8212,814.0322 Q838.4687,814.1816 839.0331,814.4805 L839.0331,817.2031 Q838.4023,816.6221 837.8088,816.3523 Q837.2153,816.0825 836.5844,816.0825 Q835.2397,816.0825 834.5549,817.1492 Q833.8701,818.2158 833.8701,820.3159 Q833.8701,822.4077 834.5549,823.4744 Q835.2397,824.541 836.5844,824.541 Q837.2153,824.541 837.8088,824.2712 Q838.4023,824.0015 839.0331,823.4204 Z " fill="#000000"/><text fill="#000000" font-family="Helvetica" font-size="14" lengthAdjust="spacing" textLength="57.5723" x="850.56" y="823.7803">BoxArray</text></g><!--class DistributionMapping--><g class="entity" data-entity="DistributionMapping" data-source-line="74" data-uid="ent0029" id="entity_DistributionMapping"><rect fill="#F4F6F8" height="32" rx="2.5" ry="2.5" style="stroke:#08519C;stroke-width:0.5;" width="155.7305" x="946.48" y="804"/><ellipse cx="961.48" cy="820" fill="#ADD1B2" rx="11" ry="11" style="stroke:#181818;stroke-width:1;"/><path d="M963.9531,826.1431 Q963.3721,826.4419 962.7329,826.5913 Q962.0938,826.7407 961.3882,826.7407 Q958.8814,826.7407 957.5615,825.0889 Q956.2417,823.437 956.2417,820.3159 Q956.2417,817.1865 957.5615,815.5347 Q958.8814,813.8828 961.3882,813.8828 Q962.0938,813.8828 962.7412,814.0322 Q963.3887,814.1816 963.9531,814.4805 L963.9531,817.2031 Q963.3223,816.6221 962.7288,816.3523 Q962.1353,816.0825 961.5044,816.0825 Q960.1597,816.0825 959.4749,817.1492 Q958.7901,818.2158 958.7901,820.3159 Q958.7901,822.4077 959.4749,823.4744 Q960.1597,824.541 961.5044,824.541 Q962.1353,824.541 962.7288,824.2712 Q963.3223,824.0015 963.9531,823.4204 Z " fill="#000000"/><text fill="#000000" font-family="Helvetica" font-size="14" lengthAdjust="spacing" textLength="123.7305" x="975.48" y="823.7803">DistributionMapping</text></g><!--class AmrLevelMP--><g class="entity" data-entity="AmrLevelMP" data-source-line="80" data-uid="ent0033" id="entity_AmrLevelMP"><rect fill="#F4F6F8" height="82" rx="2.5" ry="2.5" style="stroke:#08519C;stroke-width:0.5;" width="119.3721" x="930.66" y="518"/><ellipse cx="948.9185" cy="534" fill="#ADD1B2" rx="11" ry="11" style="stroke:#181818;stroke-width:1;"/><path d="M951.3917,540.1431 Q950.8106,540.4419 950.1715,540.5913 Q949.5323,540.7407 948.8267,540.7407 Q946.3199,540.7407 945.0001,539.0889 Q943.6803,537.437 943.6803,534.3159 Q943.6803,531.1865 945.0001,529.5347 Q946.3199,527.8828 948.8267,527.8828 Q949.5323,527.8828 950.1798,528.0322 Q950.8272,528.1816 951.3917,528.4805 L951.3917,531.2031 Q950.7608,530.6221 950.1673,530.3523 Q949.5738,530.0825 948.943,530.0825 Q947.5982,530.0825 946.9134,531.1492 Q946.2286,532.2158 946.2286,534.3159 Q946.2286,536.4077 946.9134,537.4744 Q947.5982,538.541 948.943,538.541 Q949.5738,538.541 950.1673,538.2712 Q950.7608,538.0015 951.3917,537.4204 Z " fill="#000000"/><text fill="#000000" font-family="Helvetica" font-size="14" lengthAdjust="spacing" textLength="80.1309" x="963.6427" y="537.7803">AmrLevelMP</text><line style="stroke:#08519C;stroke-width:0.5;" x1="931.66" x2="1049.0321" y1="550" y2="550"/><ellipse cx="941.66" cy="562.5" fill="none" rx="3" ry="3" style="stroke:#038048;stroke-width:1;"/><text fill="#000000" font-family="Helvetica" font-size="14" lengthAdjust="spacing" textLength="75.4619" x="950.66" y="564.7803">U : MultiFab</text><ellipse cx="941.66" cy="576.5" fill="none" rx="3" ry="3" style="stroke:#038048;stroke-width:1;"/><text fill="#000000" font-family="Helvetica" font-size="14" lengthAdjust="spacing" textLength="93.3721" x="950.66" y="578.7803">aux : MultiFab*</text><ellipse cx="941.66" cy="590.5" fill="none" rx="3" ry="3" style="stroke:#038048;stroke-width:1;"/><text fill="#000000" font-family="Helvetica" font-size="14" lengthAdjust="spacing" textLength="37.3516" x="950.66" y="592.7803">dx, dy</text></g><g class="entity" data-entity="GMN36" data-source-line="89" data-uid="ent0037" id="entity_GMN36"><path d="M106.89,165.5 L106.89,214.5 A0,0 0 0 0 106.89,214.5 L226.87,214.5 L324.09,318.58 L234.87,214.5 L311.8006,214.5 A0,0 0 0 0 311.8006,214.5 L311.8006,175.5 L301.8006,165.5 L106.89,165.5 A0,0 0 0 0 106.89,165.5" fill="#FEFFDD" style="stroke:#181818;stroke-width:0.5;"/><path d="M301.8006,165.5 L301.8006,175.5 L311.8006,175.5 L301.8006,165.5" fill="#FEFFDD" style="stroke:#181818;stroke-width:0.5;"/><text fill="#000000" font-family="Helvetica" font-size="13" lengthAdjust="spacing" textLength="183.9106" x="112.89" y="180.5103">Concept C++20 = contrat verifie</text><text fill="#000000" font-family="Helvetica" font-size="13" lengthAdjust="spacing" textLength="180.2544" x="112.89" y="193.5103">a la compilation. Pas d'heritage</text><text fill="#000000" font-family="Helvetica" font-size="13" lengthAdjust="spacing" textLength="122.8462" x="112.89" y="206.5103">virtuel, pas de vtable.</text></g><g class="entity" data-entity="GMN39" data-source-line="95" data-uid="ent0040" id="entity_GMN39"><path d="M540.55,343.5 L540.55,418.5 A0,0 0 0 0 540.55,418.5 L784.1369,418.5 A0,0 0 0 0 784.1369,418.5 L784.1369,353.5 L774.1369,343.5 L689.38,343.5 L759.52,224.35 L681.38,343.5 L540.55,343.5 A0,0 0 0 0 540.55,343.5" fill="#FEFFDD" style="stroke:#181818;stroke-width:0.5;"/><path d="M774.1369,343.5 L774.1369,353.5 L784.1369,353.5 L774.1369,343.5" fill="#FEFFDD" style="stroke:#181818;stroke-width:0.5;"/><text fill="#000000" font-family="Helvetica" font-size="13" lengthAdjust="spacing" textLength="193.6733" x="546.55" y="358.5103">Les deux axes (modele physique,</text><text fill="#000000" font-family="Helvetica" font-size="13" lengthAdjust="spacing" textLength="161.1606" x="546.55" y="371.5103">backend elliptique) sont des</text><text fill="#000000" font-family="Helvetica" font-size="13" lengthAdjust="spacing" textLength="222.5869" x="546.55" y="384.5103">parametres de template independants.</text><text fill="#000000" font-family="Helvetica" font-size="13" lengthAdjust="spacing" textLength="208.0825" x="546.55" y="397.5103">Coupler&lt;Diocotron, GeometricMG&gt;,</text><text fill="#000000" font-family="Helvetica" font-size="13" lengthAdjust="spacing" textLength="216.0361" x="546.55" y="410.5103">Coupler&lt;Euler, PoissonFFTSolver&gt;...</text></g><!--link Diocotron to PM--><g class="link" data-entity-1="Diocotron" data-entity-2="PM" data-source-line="35" data-uid="lnk7" id="link_Diocotron_PM"><path codeLine="35" d="M391.28,206.47 C389.6,230.8 387.5092,261.3727 384.7792,300.9327" fill="none" id="Diocotron-to-PM" style="stroke:#444444;stroke-width:1;stroke-dasharray:7,7;"/><polygon fill="none" points="383.54,318.89,390.765,301.3458,378.7935,300.5196,383.54,318.89" style="stroke:#444444;stroke-width:1;"/></g><!--link Euler to PM--><g class="link" data-entity-1="Euler" data-entity-2="PM" data-source-line="36" data-uid="lnk8" id="link_Euler_PM"><path codeLine="36" d="M56.74,206.35 C66.07,214.2 77.96,223.63 89.34,231 C140.89,264.38 184.6958,288.2698 236.6558,313.8898" fill="none" id="Euler-to-PM" style="stroke:#444444;stroke-width:1;stroke-dasharray:7,7;"/><polygon fill="none" points="252.8,321.85,239.3092,308.5084,234.0024,319.2712,252.8,321.85" style="stroke:#444444;stroke-width:1;"/></g><!--link EulerPoisson to PM--><g class="link" data-entity-1="EulerPoisson" data-entity-2="PM" data-source-line="37" data-uid="lnk9" id="link_EulerPoisson_PM"><path codeLine="37" d="M322.83,69.17 C367.46,80.4 426.45,103.35 455.34,149 C488.53,201.44 468.3241,254.7213 436.7741,303.4413" fill="none" id="EulerPoisson-to-PM" style="stroke:#444444;stroke-width:1;stroke-dasharray:7,7;"/><polygon fill="none" points="426.99,318.55,441.8103,306.7027,431.7378,300.18,426.99,318.55" style="stroke:#444444;stroke-width:1;"/></g><!--reverse link EulerPoisson to Euler--><g class="link" data-entity-1="EulerPoisson" data-entity-2="Euler" data-source-line="38" data-uid="lnk10" id="link_EulerPoisson_Euler"><path codeLine="38" d="M219.2049,79.4041 C182.8249,95.9341 135.89,118.92 89.34,149 C77.95,156.36 66.06,165.79 56.74,173.65" fill="none" id="EulerPoisson-backto-Euler" style="stroke:#444444;stroke-width:1;"/><polygon fill="#444444" points="230.13,74.44,223.0128,73.2803,219.2049,79.4041,226.3221,80.5637,230.13,74.44" style="stroke:#444444;stroke-width:1;"/><text fill="#000000" font-family="Helvetica" font-size="13" lengthAdjust="spacing" textLength="82.3989" x="165.63" y="115.0103">delegue hydro</text></g><!--link GeometricMG to ES--><g class="link" data-entity-1="GeometricMG" data-entity-2="ES" data-source-line="44" data-uid="lnk14" id="link_GeometricMG_ES"><path codeLine="44" d="M1601.75,206.43 C1587.44,213.87 1570.01,222.92 1554.34,231 C1481.7,268.46 1414.7414,302.745 1356.0214,332.725" fill="none" id="GeometricMG-to-ES" style="stroke:#444444;stroke-width:1;stroke-dasharray:7,7;"/><polygon fill="none" points="1339.99,340.91,1358.7497,338.0688,1353.2931,327.3812,1339.99,340.91" style="stroke:#444444;stroke-width:1;"/></g><!--link PoissonFFTSolver to ES--><g class="link" data-entity-1="PoissonFFTSolver" data-entity-2="ES" data-source-line="45" data-uid="lnk15" id="link_PoissonFFTSolver_ES"><path codeLine="45" d="M1263.34,206.47 C1263.34,231.59 1263.34,264.52 1263.34,304.73" fill="none" id="PoissonFFTSolver-to-ES" style="stroke:#444444;stroke-width:1;stroke-dasharray:7,7;"/><polygon fill="none" points="1263.34,322.73,1269.34,304.73,1257.34,304.73,1263.34,322.73" style="stroke:#444444;stroke-width:1;"/></g><!--link DistributedFFTSolver to ES--><g class="link" data-entity-1="DistributedFFTSolver" data-entity-2="ES" data-source-line="46" data-uid="lnk16" id="link_DistributedFFTSolver_ES"><path codeLine="46" d="M1438.71,206.47 C1413.32,231.59 1374.6554,269.86 1334.0154,310.07" fill="none" id="DistributedFFTSolver-to-ES" style="stroke:#444444;stroke-width:1;stroke-dasharray:7,7;"/><polygon fill="none" points="1321.22,322.73,1338.2355,314.3351,1329.7954,305.8048,1321.22,322.73" style="stroke:#444444;stroke-width:1;"/></g><!--link Coupler to PM--><g class="link" data-entity-1="Coupler" data-entity-2="PM" data-source-line="59" data-uid="lnk19" id="link_Coupler_PM"><path codeLine="59" d="M709.57,224.35 C653.25,250.9 578.4175,286.1723 511.1275,317.8823" fill="none" id="Coupler-to-PM" style="stroke:#444444;stroke-width:1;stroke-dasharray:7,7;"/><polygon fill="#444444" points="505.7,320.44,515.5464,320.2218,510.223,318.3086,512.1362,312.9851,505.7,320.44" style="stroke:#444444;stroke-width:1;"/><text fill="#000000" font-family="Helvetica" font-size="13" lengthAdjust="spacing" textLength="49.8672" x="628.55" y="272.0103">&#171;Model&#187;</text><text fill="#000000" font-family="Helvetica" font-size="13" lengthAdjust="spacing" textLength="44.0781" x="631.4445" y="285.0103">requiert</text></g><!--reverse link Coupler to ES--><g class="link" data-entity-1="Coupler" data-entity-2="ES" data-source-line="60" data-uid="lnk20" id="link_Coupler_ES"><path codeLine="60" d="M870.9722,229.6238 C893.0822,240.1638 905.81,247.46 926.34,261 C942.12,271.4 941.22,280.99 958.34,289 C1035.77,325.24 1067.25,291.93 1148.34,319 C1161.1,323.26 1174.14,328.83 1186.64,334.88" fill="none" id="Coupler-backto-ES" style="stroke:#444444;stroke-width:1;"/><polygon fill="none" points="860.14,224.46,863.8348,230.6526,870.9722,229.6238,867.2773,223.4312,860.14,224.46" style="stroke:#444444;stroke-width:1;"/><text fill="#000000" font-family="Helvetica" font-size="13" lengthAdjust="spacing" textLength="52.0254" x="971.6164" y="272.0103">&#171;Elliptic&#187;</text><text fill="#000000" font-family="Helvetica" font-size="13" lengthAdjust="spacing" textLength="76.5781" x="959.34" y="285.0103">membre mg_</text></g><!--reverse link Coupler to MultiFab--><g class="link" data-entity-1="Coupler" data-entity-2="MultiFab" data-source-line="61" data-uid="lnk22" id="link_Coupler_MultiFab"><path codeLine="61" d="M787.8197,235.9672 C803.3397,329.2372 845.29,581.47 860.82,674.81" fill="none" id="Coupler-backto-MultiFab" style="stroke:#444444;stroke-width:1;"/><polygon fill="#444444" points="785.85,224.13,782.8891,230.7052,787.8197,235.9672,790.7806,229.3921,785.85,224.13" style="stroke:#444444;stroke-width:1;"/><text fill="#000000" font-family="Helvetica" font-size="13" lengthAdjust="spacing" textLength="28.1899" x="830.28" y="484.0103">aux_</text></g><!--link AmrCoupler to PM--><g class="link" data-entity-1="AmrCoupler" data-entity-2="PM" data-source-line="63" data-uid="lnk23" id="link_AmrCoupler_PM"><path codeLine="63" d="M949.35,219.82 C935.57,223.61 921.62,227.42 908.34,231 C809.88,257.54 785.89,266.87 686.34,289 C614.44,304.99 593.9,297.84 523.34,319 C517.62,320.72 517.5013,320.6605 511.6713,322.6405" fill="none" id="AmrCoupler-to-PM" style="stroke:#444444;stroke-width:1;stroke-dasharray:7,7;"/><polygon fill="#444444" points="505.99,324.57,515.7983,325.4633,510.7244,322.9621,513.2256,317.8882,505.99,324.57" style="stroke:#444444;stroke-width:1;"/><text fill="#000000" font-family="Helvetica" font-size="13" lengthAdjust="spacing" textLength="49.8672" x="798.75" y="272.0103">&#171;Model&#187;</text><text fill="#000000" font-family="Helvetica" font-size="13" lengthAdjust="spacing" textLength="44.0781" x="801.6445" y="285.0103">requiert</text></g><!--reverse link AmrCoupler to ES--><g class="link" data-entity-1="AmrCoupler" data-entity-2="ES" data-source-line="64" data-uid="lnk24" id="link_AmrCoupler_ES"><path codeLine="64" d="M1106.2882,239.3167 C1135.9382,265.8767 1166.28,293.06 1199.19,322.54" fill="none" id="AmrCoupler-backto-ES" style="stroke:#444444;stroke-width:1;"/><polygon fill="none" points="1097.35,231.31,1099.1502,238.2928,1106.2882,239.3167,1104.488,232.334,1097.35,231.31" style="stroke:#444444;stroke-width:1;"/><text fill="#000000" font-family="Helvetica" font-size="13" lengthAdjust="spacing" textLength="52.0254" x="1171.1164" y="272.0103">&#171;Elliptic&#187;</text><text fill="#000000" font-family="Helvetica" font-size="13" lengthAdjust="spacing" textLength="76.5781" x="1158.84" y="285.0103">membre mg_</text></g><!--reverse link AmrCoupler to AmrLevelStack--><g class="link" data-entity-1="AmrCoupler" data-entity-2="AmrLevelStack" data-source-line="65" data-uid="lnk26" id="link_AmrCoupler_AmrLevelStack"><path codeLine="65" d="M1048.711,243.0655 C1047.361,260.8355 1046.47,270 1044.34,289 C1041.35,315.64 1036.69,346.51 1033.83,364.58" fill="none" id="AmrCoupler-backto-AmrLevelStack" style="stroke:#444444;stroke-width:1;"/><polygon fill="#444444" points="1049.62,231.1,1045.177,236.7798,1048.711,243.0655,1053.154,237.3858,1049.62,231.1" style="stroke:#444444;stroke-width:1;"/><text fill="#000000" font-family="Helvetica" font-size="13" lengthAdjust="spacing" textLength="37.5718" x="1048.04" y="278.5103">stack_</text></g><!--reverse link MultiFab to BoxArray--><g class="link" data-entity-1="MultiFab" data-entity-2="BoxArray" data-source-line="75" data-uid="lnk30" id="link_MultiFab_BoxArray"><path codeLine="75" d="M866.34,755.3 C866.34,775.46 866.34,788.2 866.34,803.79" fill="none" id="MultiFab-backto-BoxArray" style="stroke:#444444;stroke-width:1;"/><polygon fill="none" points="866.34,743.3,862.34,749.3,866.34,755.3,870.34,749.3,866.34,743.3" style="stroke:#444444;stroke-width:1;"/></g><!--reverse link MultiFab to DistributionMapping--><g class="link" data-entity-1="MultiFab" data-entity-2="DistributionMapping" data-source-line="76" data-uid="lnk31" id="link_MultiFab_DistributionMapping"><path codeLine="76" d="M924.4872,750.1147 C953.7072,770.2747 979.7,788.2 1002.29,803.79" fill="none" id="MultiFab-backto-DistributionMapping" style="stroke:#444444;stroke-width:1;"/><polygon fill="none" points="914.61,743.3,917.2771,749.9998,924.4872,750.1147,921.8202,743.4149,914.61,743.3" style="stroke:#444444;stroke-width:1;"/></g><!--reverse link MultiFab to Fab2D--><g class="link" data-entity-1="MultiFab" data-entity-2="Fab2D" data-source-line="77" data-uid="lnk32" id="link_MultiFab_Fab2D"><path codeLine="77" d="M821.8198,751.4797 C800.1798,771.6397 782.4,788.2 765.67,803.79" fill="none" id="MultiFab-backto-Fab2D" style="stroke:#444444;stroke-width:1;"/><polygon fill="#444444" points="830.6,743.3,823.4833,744.4631,821.8198,751.4797,828.9365,750.3166,830.6,743.3" style="stroke:#444444;stroke-width:1;"/><text fill="#000000" font-family="Helvetica" font-size="13" lengthAdjust="spacing" textLength="5.0591" x="765.4341" y="792.9937">*</text></g><!--reverse link AmrLevelStack to AmrLevelMP--><g class="link" data-entity-1="AmrLevelStack" data-entity-2="AmrLevelMP" data-source-line="85" data-uid="lnk34" id="link_AmrLevelStack_AmrLevelMP"><path codeLine="85" d="M1025.0502,408.9977 C1018.8602,435.5977 1008.64,479.45 999.72,517.73" fill="none" id="AmrLevelStack-backto-AmrLevelMP" style="stroke:#444444;stroke-width:1;"/><polygon fill="#444444" points="1027.77,397.31,1022.5142,402.2473,1025.0502,408.9977,1030.306,404.0605,1027.77,397.31" style="stroke:#444444;stroke-width:1;"/><text fill="#000000" font-family="Helvetica" font-size="13" lengthAdjust="spacing" textLength="5.0591" x="995.8202" y="507.1269">*</text></g><!--reverse link AmrLevelMP to MultiFab--><g class="link" data-entity-1="AmrLevelMP" data-entity-2="MultiFab" data-source-line="86" data-uid="lnk35" id="link_AmrLevelMP_MultiFab"><path codeLine="86" d="M948.7522,609.6372 C929.2422,632.9172 912.74,652.62 894.32,674.6" fill="none" id="AmrLevelMP-backto-MultiFab" style="stroke:#444444;stroke-width:1;"/><polygon fill="#444444" points="956.46,600.44,949.5403,602.4693,948.7522,609.6372,955.6718,607.6079,956.46,600.44" style="stroke:#444444;stroke-width:1;"/><text fill="#000000" font-family="Helvetica" font-size="13" lengthAdjust="spacing" textLength="9.3882" x="929.34" y="641.0103">U</text></g><!--SRC=[XLPRRzis57xNhpZ8W4PE5A4hkg4hF0Df6dSFyM3Cori1WHQFRIAKg9AKO-_ottT8IJHzGQSdwfplt2_aDNmMRArPLI5mX58oOz30Hs1BOpKhhL2r0Oqe9P7HWiHMEu9adfKdrp1JjTL87AZ55baB_3gIXhHKTOcDDV1mU_lkBVmAehQeLwmaZSQIdcyjcemKbQfgb15Ugc4QB5ODsS4C_aAjO8DQMBP6s0fjMvIZF4cii6INyR8ecmRkxe1V2YSzYgQKE4eIyo9gCi8gC1l6rQkerx1Yqc34uRXYhRHJ2l1tHYf_Gxb5AqeMORoDJwnyMMlLrln1IQNXX-dxwS_J3sSmfJdg7lBsmqy__l8GGUwrLgyzyxt_aesWA2WBTWyLLalK9g4ytRaFGbhJY_c4BQLh9P2832JpoHLTrKQTXYJ8mTLyipSKbvmfZl9hFHxtsYUJAs06vZFuEm6uNLXVZljsbq5TR1dvGzILR7VfSmRCaRdG8-eVZtJCYksALxR5mZI8_1Js1pBfK4QrkiIUUoHFdISQodcXDoPz3ZB_9h7xZpreeQX0-jp_nqNdlzFXLCoegcBAbcySiTc8Sw9ncjAH5q8ZUCja6ZkyHbLvmXSweDNxDywbeJQLIoDbld5fTUM0r9E4mTh2KRA7OlW6eMbKfR9QrVt_OojHn-Uv4iOGEm0Xp_-PK84Ippx-wy6NYJVaPoVp4PotwnPXi-TQ7S9OKbjZpMdmk_oUHNASz-DG-iI8SlQbf_IMfzC_Eto8cOPJB5kB_C2Af3lt7nV9gNnWND8GcD70j4stlb8_SAJUbOWMZIiLntONPkeuagi7Bwd7lc1PYBhhhPxPDHZZMqOgna-Y4jIT6SKiHRcVkCxcrhNJNTjmQks2kPaPKTFqDkuhtMkQpIyREY0wMyPYatPAgKVNMl2qf0qvwgREc3GUba4oprqd46FS6PbCljOQlxK2jGqWvLfZuK711SAv5KIBlbeN0UcQQ9WRTskqko998aU_Qox2_R_52EoCkdmzuHObBOhovOeaZJiKXt9pLTTk-yML3Axw1AxOCfN2POb8xpxxkL-gNS6qPdkVlKzgT-z-Gfayi3y7vaaRquQTiQQX2oK9zbny0Nz4_QwOZ_JcgZSRjSeXzF7mDvk7DZbmUv43felyELftlcsfzm-K6qVYRacxm8_q1OyE6fD8-KaxF2T9hIo2LGsebTj0GEFYHomy1ahtUc1skAu8SNfTvJ2diFZrSFyJf7y1P3IzRd9XQzbIOfxGiW9diRUxLDQgofdkMuT4duPPPxkmp30iwemG_TQBbju8QErO4dFNNRGxoFBmHg573SU6n5XjwLK4WyLnMDHPl14dMGJnMpWxMu-JF8yY-Wy0]--></g></svg>