<svg xmlns="http://www.w3.org/2000/svg" xmlns:xlink="http://www.w3.org/1999/xlink" contentStyleType="text/css" data-diagram-type="SEQUENCE" height="945px" preserveAspectRatio="none" style="width:842px;height:945px;background:#FFFFFF;" version="1.1" viewBox="0 0 842 945" width="842px" zoomAndPan="magnify"><title>adc_cpp -- sequence d'un pas couple (Coupler::advance, SSP-RK2)</title><defs/><g><text fill="#000000" font-family="Helvetica" font-size="14" font-weight="bold" lengthAdjust="spacing" textLength="448.3076" x="192.991" y="25.7803">adc_cpp -- sequence d'un pas couple (Coupler::advance, SSP-RK2)</text><g><title>Coupler</title><rect fill="#FFFFFF" height="621" style="stroke:#181818;stroke-width:1;" width="10" x="163.627" y="143"/></g><g><title>Elliptic</title><rect fill="#FFFFFF" height="27" style="stroke:#181818;stroke-width:1;" width="10" x="356.9678" y="238"/></g><g><title>assemble_rhs</title><rect fill="#FFFFFF" height="189" style="stroke:#181818;stroke-width:1;" width="10" x="472.7676" y="373"/></g><g><title>for_each_cell</title><rect fill="#FFFFFF" height="135" style="stroke:#181818;stroke-width:1;" width="10" x="776.6519" y="400"/></g><g><title>boucle de temps</title><rect fill="#000000" fill-opacity="0.00000" height="753" width="8" x="55.3652" y="114"/><line style="stroke:#181818;stroke-width:0.5;stroke-dasharray:5,5;" x1="59" x2="59" y1="114" y2="867"/></g><g><title>Coupler</title><rect fill="#000000" fill-opacity="0.00000" height="753" width="8" x="164.627" y="114"/><line style="stroke:#181818;stroke-width:0.5;stroke-dasharray:5,5;" x1="168.1133" x2="168.1133" y1="114" y2="867"/></g><g><title>Elliptic</title><rect fill="#000000" fill-opacity="0.00000" height="753" width="8" x="357.9678" y="114"/><line style="stroke:#181818;stroke-width:0.5;stroke-dasharray:5,5;" x1="361.7437" x2="361.7437" y1="114" y2="867"/></g><g><title>assemble_rhs</title><rect fill="#000000" fill-opacity="0.00000" height="753" width="8" x="473.7676" y="114"/><line style="stroke:#181818;stroke-width:0.5;stroke-dasharray:5,5;" x1="477.1919" x2="477.1919" y1="114" y2="867"/></g><g><title>Model</title><rect fill="#000000" fill-opacity="0.00000" height="753" width="8" x="575.9639" y="114"/><line style="stroke:#181818;stroke-width:0.5;stroke-dasharray:5,5;" x1="579.3433" x2="579.3433" y1="114" y2="867"/></g><g><title>for_each_cell</title><rect fill="#000000" fill-opacity="0.00000" height="753" width="8" x="777.6519" y="114"/><line style="stroke:#181818;stroke-width:0.5;stroke-dasharray:5,5;" x1="781.0142" x2="781.0142" y1="114" y2="867"/></g><g class="participant participant-head" data-participant="Loop"><text fill="#000000" font-family="Helvetica" font-size="14" lengthAdjust="spacing" textLength="102.7305" x="5" y="110.7803">boucle de temps</text><ellipse cx="59.3652" cy="48.5" fill="#E2E2F0" rx="8" ry="8" style="stroke:#181818;stroke-width:0.5;"/><path d="M59.3652,56.5 L59.3652,83.5 M46.3652,64.5 L72.3652,64.5 M59.3652,83.5 L46.3652,98.5 M59.3652,83.5 L72.3652,98.5" fill="none" style="stroke:#181818;stroke-width:0.5;"/></g><g class="participant participant-tail" data-participant="Loop"><text fill="#000000" font-family="Helvetica" font-size="14" lengthAdjust="spacing" textLength="102.7305" x="5" y="876.7803">boucle de temps</text><ellipse cx="59.3652" cy="888.5" fill="#E2E2F0" rx="8" ry="8" style="stroke:#181818;stroke-width:0.5;"/><path d="M59.3652,896.5 L59.3652,923.5 M46.3652,904.5 L72.3652,904.5 M59.3652,923.5 L46.3652,938.5 M59.3652,923.5 L72.3652,938.5" fill="none" style="stroke:#181818;stroke-width:0.5;"/></g><g class="participant participant-head" data-participant="C"><rect fill="#F4F6F8" height="28" rx="2.5" ry="2.5" style="stroke:#08519C;stroke-width:0.5;" width="63.0273" x="137.1133" y="85"/><text fill="#000000" font-family="Helvetica" font-size="14" lengthAdjust="spacing" textLength="49.0273" x="144.1133" y="102.7803">Coupler</text></g><g class="participant participant-tail" data-participant="C"><rect fill="#F4F6F8" height="28" rx="2.5" ry="2.5" style="stroke:#08519C;stroke-width:0.5;" width="63.0273" x="137.1133" y="866"/><text fill="#000000" font-family="Helvetica" font-size="14" lengthAdjust="spacing" textLength="49.0273" x="144.1133" y="883.7803">Coupler</text></g><g class="participant participant-head" data-participant="MG"><rect fill="#F4F6F8" height="42" rx="2.5" ry="2.5" style="stroke:#08519C;stroke-width:0.5;" width="110.4482" x="306.7437" y="71"/><text fill="#000000" font-family="Helvetica" font-size="14" lengthAdjust="spacing" textLength="40.4551" x="341.7402" y="88.7803">Elliptic</text><text fill="#000000" font-family="Helvetica" font-size="14" lengthAdjust="spacing" textLength="96.4482" x="313.7437" y="102.7803">(GeometricMG)</text></g><g class="participant participant-tail" data-participant="MG"><rect fill="#F4F6F8" height="42" rx="2.5" ry="2.5" style="stroke:#08519C;stroke-width:0.5;" width="110.4482" x="306.7437" y="866"/><text fill="#000000" font-family="Helvetica" font-size="14" lengthAdjust="spacing" textLength="40.4551" x="341.7402" y="883.7803">Elliptic</text><text fill="#000000" font-family="Helvetica" font-size="14" lengthAdjust="spacing" textLength="96.4482" x="313.7437" y="897.7803">(GeometricMG)</text></g><g class="participant participant-head" data-participant="RHS"><rect fill="#F4F6F8" height="28" rx="2.5" ry="2.5" style="stroke:#08519C;stroke-width:0.5;" width="101.1514" x="427.1919" y="85"/><text fill="#000000" font-family="Helvetica" font-size="14" lengthAdjust="spacing" textLength="87.1514" x="434.1919" y="102.7803">assemble_rhs</text></g><g class="participant participant-tail" data-participant="RHS"><rect fill="#F4F6F8" height="28" rx="2.5" ry="2.5" style="stroke:#08519C;stroke-width:0.5;" width="101.1514" x="427.1919" y="866"/><text fill="#000000" font-family="Helvetica" font-size="14" lengthAdjust="spacing" textLength="87.1514" x="434.1919" y="883.7803">assemble_rhs</text></g><g class="participant participant-head" data-participant="M"><rect fill="#F4F6F8" height="42" rx="2.5" ry="2.5" style="stroke:#08519C;stroke-width:0.5;" width="83.2412" x="538.3433" y="71"/><text fill="#000000" font-family="Helvetica" font-size="14" lengthAdjust="spacing" textLength="38.1309" x="560.8984" y="88.7803">Model</text><text fill="#000000" font-family="Helvetica" font-size="14" lengthAdjust="spacing" textLength="69.2412" x="545.3433" y="102.7803">(Diocotron)</text></g><g class="participant participant-tail" data-participant="M"><rect fill="#F4F6F8" height="42" rx="2.5" ry="2.5" style="stroke:#08519C;stroke-width:0.5;" width="83.2412" x="538.3433" y="866"/><text fill="#000000" font-family="Helvetica" font-size="14" lengthAdjust="spacing" textLength="38.1309" x="560.8984" y="883.7803">Model</text><text fill="#000000" font-family="Helvetica" font-size="14" lengthAdjust="spacing" textLength="69.2412" x="545.3433" y="897.7803">(Diocotron)</text></g><g class="participant participant-head" data-participant="SEAM"><rect fill="#F4F6F8" height="42" rx="2.5" ry="2.5" style="stroke:#08519C;stroke-width:0.5;" width="97.2754" x="733.0142" y="71"/><text fill="#000000" font-family="Helvetica" font-size="14" lengthAdjust="spacing" textLength="83.2754" x="740.0142" y="88.7803">for_each_cell</text><text fill="#000000" font-family="Helvetica" font-size="14" lengthAdjust="spacing" textLength="49.8066" x="756.7485" y="102.7803">&#171;seam&#187;</text></g><g class="participant participant-tail" data-participant="SEAM"><rect fill="#F4F6F8" height="42" rx="2.5" ry="2.5" style="stroke:#08519C;stroke-width:0.5;" width="97.2754" x="733.0142" y="866"/><text fill="#000000" font-family="Helvetica" font-size="14" lengthAdjust="spacing" textLength="83.2754" x="740.0142" y="883.7803">for_each_cell</text><text fill="#000000" font-family="Helvetica" font-size="14" lengthAdjust="spacing" textLength="49.8066" x="756.7485" y="897.7803">&#171;seam&#187;</text></g><g><title>Coupler</title><rect fill="#FFFFFF" height="621" style="stroke:#181818;stroke-width:1;" width="10" x="163.627" y="143"/></g><g><title>Elliptic</title><rect fill="#FFFFFF" height="27" style="stroke:#181818;stroke-width:1;" width="10" x="356.9678" y="238"/></g><g><title>assemble_rhs</title><rect fill="#FFFFFF" height="189" style="stroke:#181818;stroke-width:1;" width="10" x="472.7676" y="373"/></g><g><title>for_each_cell</title><rect fill="#FFFFFF" height="135" style="stroke:#181818;stroke-width:1;" width="10" x="776.6519" y="400"/></g><g class="message" data-participant-1="Loop" data-participant-2="C"><polygon fill="#444444" points="151.627,139,161.627,143,151.627,147,155.627,143" style="stroke:#444444;stroke-width:1;"/><line style="stroke:#444444;stroke-width:1;" x1="59.3652" x2="157.627" y1="143" y2="143"/><text fill="#000000" font-family="Helvetica" font-size="13" lengthAdjust="spacing" textLength="85.2617" x="66.3652" y="138.0103">advance(U, dt)</text></g><rect fill="#EEEEEE" height="3" style="stroke:#EEEEEE;stroke-width:1;" width="835.2896" x="0" y="170.5"/><line style="stroke:#000000;stroke-width:1;" x1="0" x2="835.2896" y1="170.5" y2="170.5"/><line style="stroke:#000000;stroke-width:1;" x1="0" x2="835.2896" y1="173.5" y2="173.5"/><rect fill="#EEEEEE" height="21" style="stroke:#000000;stroke-width:2;" width="155.5718" x="339.8589" y="161"/><text fill="#000000" font-family="Helvetica" font-size="13" font-weight="bold" lengthAdjust="spacing" textLength="137.96" x="345.8589" y="175.0103">1. resolution elliptique</text><g class="message" data-participant-1="C" data-participant-2="MG"><polygon fill="#444444" points="349.9678,207,359.9678,211,349.9678,215,353.9678,211" style="stroke:#444444;stroke-width:1;"/><line style="stroke:#444444;stroke-width:1;" x1="173.627" x2="355.9678" y1="211" y2="211"/><text fill="#000000" font-family="Helvetica" font-size="13" lengthAdjust="spacing" textLength="164.3408" x="180.627" y="206.0103">rhs() &lt;- model.elliptic_rhs(U)</text></g><g class="message" data-participant-1="C" data-participant-2="MG"><polygon fill="#444444" points="344.9678,234,354.9678,238,344.9678,242,348.9678,238" style="stroke:#444444;stroke-width:1;"/><line style="stroke:#444444;stroke-width:1;" x1="173.627" x2="350.9678" y1="238" y2="238"/><text fill="#000000" font-family="Helvetica" font-size="13" lengthAdjust="spacing" textLength="39.0063" x="180.627" y="233.0103">solve()</text></g><g class="message" data-participant-1="MG" data-participant-2="C"><polygon fill="#444444" points="184.627,261,174.627,265,184.627,269,180.627,265" style="stroke:#444444;stroke-width:1;"/><line style="stroke:#444444;stroke-width:1;stroke-dasharray:2,2;" x1="178.627" x2="360.9678" y1="265" y2="265"/><text fill="#000000" font-family="Helvetica" font-size="13" lengthAdjust="spacing" textLength="91.0063" x="190.627" y="260.0103">phi (warm-start)</text></g><g class="message" data-participant-1="C" data-participant-2="C"><line style="stroke:#444444;stroke-width:1;" x1="173.627" x2="215.627" y1="292" y2="292"/><line style="stroke:#444444;stroke-width:1;" x1="215.627" x2="215.627" y1="292" y2="305"/><line style="stroke:#444444;stroke-width:1;" x1="174.627" x2="215.627" y1="305" y2="305"/><polygon fill="#444444" points="184.627,301,174.627,305,184.627,309,180.627,305" style="stroke:#444444;stroke-width:1;"/><text fill="#000000" font-family="Helvetica" font-size="13" lengthAdjust="spacing" textLength="115.9844" x="180.627" y="287.0103">aux = (phi, grad phi)</text></g><rect fill="#EEEEEE" height="3" style="stroke:#EEEEEE;stroke-width:1;" width="835.2896" x="0" y="332.5"/><line style="stroke:#000000;stroke-width:1;" x1="0" x2="835.2896" y1="332.5" y2="332.5"/><line style="stroke:#000000;stroke-width:1;" x1="0" x2="835.2896" y1="335.5" y2="335.5"/><rect fill="#EEEEEE" height="21" style="stroke:#000000;stroke-width:2;" width="182.3208" x="326.4844" y="323"/><text fill="#000000" font-family="Helvetica" font-size="13" font-weight="bold" lengthAdjust="spacing" textLength="164.709" x="332.4844" y="337.0103">2. etage RK : R = -div F + S</text><g class="message" data-participant-1="C" data-participant-2="RHS"><polygon fill="#444444" points="460.7676,369,470.7676,373,460.7676,377,464.7676,373" style="stroke:#444444;stroke-width:1;"/><line style="stroke:#444444;stroke-width:1;" x1="173.627" x2="466.7676" y1="373" y2="373"/><text fill="#000000" font-family="Helvetica" font-size="13" lengthAdjust="spacing" textLength="186.3989" x="180.627" y="368.0103">assemble_rhs(model, U, aux, R)</text></g><g class="message" data-participant-1="RHS" data-participant-2="SEAM"><polygon fill="#444444" points="764.6519,396,774.6519,400,764.6519,404,768.6519,400" style="stroke:#444444;stroke-width:1;"/><line style="stroke:#444444;stroke-width:1;" x1="482.7676" x2="770.6519" y1="400" y2="400"/><text fill="#000000" font-family="Helvetica" font-size="13" lengthAdjust="spacing" textLength="156.8062" x="489.7676" y="395.0103">for_each_cell(box, lambda)</text></g><g class="message" data-participant-1="SEAM" data-participant-2="M"><polygon fill="#444444" points="590.9639,423,580.9639,427,590.9639,431,586.9639,427" style="stroke:#444444;stroke-width:1;"/><line style="stroke:#444444;stroke-width:1;" x1="584.9639" x2="775.6519" y1="427" y2="427"/><text fill="#000000" font-family="Helvetica" font-size="13" lengthAdjust="spacing" textLength="88.1309" x="596.9639" y="422.0103">flux(U, aux, dir)</text></g><g class="message" data-participant-1="SEAM" data-participant-2="M"><polygon fill="#444444" points="590.9639,450,580.9639,454,590.9639,458,586.9639,454" style="stroke:#444444;stroke-width:1;"/><line style="stroke:#444444;stroke-width:1;" x1="584.9639" x2="775.6519" y1="454" y2="454"/><text fill="#000000" font-family="Helvetica" font-size="13" lengthAdjust="spacing" textLength="172.688" x="596.9639" y="449.0103">max_wave_speed(U, aux, dir)</text></g><g class="message" data-participant-1="SEAM" data-participant-2="M"><polygon fill="#444444" points="590.9639,477,580.9639,481,590.9639,485,586.9639,481" style="stroke:#444444;stroke-width:1;"/><line style="stroke:#444444;stroke-width:1;" x1="584.9639" x2="775.6519" y1="481" y2="481"/><text fill="#000000" font-family="Helvetica" font-size="13" lengthAdjust="spacing" textLength="85.249" x="596.9639" y="476.0103">source(U, aux)</text></g><g class="message" data-participant-1="M" data-participant-2="SEAM"><polygon fill="#444444" points="764.6519,504,774.6519,508,764.6519,512,768.6519,508" style="stroke:#444444;stroke-width:1;"/><line style="stroke:#444444;stroke-width:1;stroke-dasharray:2,2;" x1="579.9639" x2="770.6519" y1="508" y2="508"/><text fill="#000000" font-family="Helvetica" font-size="13" lengthAdjust="spacing" textLength="111.2871" x="586.9639" y="503.0103">valeurs ponctuelles</text></g><g class="message" data-participant-1="SEAM" data-participant-2="RHS"><polygon fill="#444444" points="493.7676,531,483.7676,535,493.7676,539,489.7676,535" style="stroke:#444444;stroke-width:1;"/><line style="stroke:#444444;stroke-width:1;stroke-dasharray:2,2;" x1="487.7676" x2="780.6519" y1="535" y2="535"/><text fill="#000000" font-family="Helvetica" font-size="13" lengthAdjust="spacing" textLength="48.3945" x="499.7676" y="530.0103">R rempli</text></g><g class="message" data-participant-1="RHS" data-participant-2="C"><polygon fill="#444444" points="184.627,558,174.627,562,184.627,566,180.627,562" style="stroke:#444444;stroke-width:1;"/><line style="stroke:#444444;stroke-width:1;stroke-dasharray:2,2;" x1="178.627" x2="476.7676" y1="562" y2="562"/><text fill="#000000" font-family="Helvetica" font-size="13" lengthAdjust="spacing" textLength="9.3882" x="190.627" y="557.0103">R</text></g><g class="message" data-participant-1="C" data-participant-2="C"><line style="stroke:#444444;stroke-width:1;" x1="173.627" x2="215.627" y1="589" y2="589"/><line style="stroke:#444444;stroke-width:1;" x1="215.627" x2="215.627" y1="589" y2="602"/><line style="stroke:#444444;stroke-width:1;" x1="174.627" x2="215.627" y1="602" y2="602"/><polygon fill="#444444" points="184.627,598,174.627,602,184.627,606,180.627,602" style="stroke:#444444;stroke-width:1;"/><text fill="#000000" font-family="Helvetica" font-size="13" lengthAdjust="spacing" textLength="88.1499" x="180.627" y="584.0103">U1 = U + dt * R</text></g><rect fill="#EEEEEE" height="3" style="stroke:#EEEEEE;stroke-width:1;" width="835.2896" x="0" y="629.5"/><line style="stroke:#000000;stroke-width:1;" x1="0" x2="835.2896" y1="629.5" y2="629.5"/><line style="stroke:#000000;stroke-width:1;" x1="0" x2="835.2896" y1="632.5" y2="632.5"/><rect fill="#EEEEEE" height="21" style="stroke:#000000;stroke-width:2;" width="253.1099" x="291.0898" y="620"/><text fill="#000000" font-family="Helvetica" font-size="13" font-weight="bold" lengthAdjust="spacing" textLength="235.498" x="297.0898" y="634.0103">3. second etage (re-solve phi pour U1)</text><g class="message" data-participant-1="C" data-participant-2="MG"><polygon fill="#444444" points="349.9678,666,359.9678,670,349.9678,674,353.9678,670" style="stroke:#444444;stroke-width:1;"/><line style="stroke:#444444;stroke-width:1;" x1="173.627" x2="355.9678" y1="670" y2="670"/><text fill="#000000" font-family="Helvetica" font-size="13" lengthAdjust="spacing" textLength="109.0908" x="180.627" y="665.0103">solve()  (PerStage)</text></g><g class="message" data-participant-1="C" data-participant-2="RHS"><polygon fill="#444444" points="465.7676,693,475.7676,697,465.7676,701,469.7676,697" style="stroke:#444444;stroke-width:1;"/><line style="stroke:#444444;stroke-width:1;" x1="173.627" x2="471.7676" y1="697" y2="697"/><text fill="#000000" font-family="Helvetica" font-size="13" lengthAdjust="spacing" textLength="193.6289" x="180.627" y="692.0103">assemble_rhs(model, U1, aux, R)</text></g><g class="message" data-participant-1="C" data-participant-2="C"><line style="stroke:#444444;stroke-width:1;" x1="173.627" x2="215.627" y1="724" y2="724"/><line style="stroke:#444444;stroke-width:1;" x1="215.627" x2="215.627" y1="724" y2="737"/><line style="stroke:#444444;stroke-width:1;" x1="174.627" x2="215.627" y1="737" y2="737"/><polygon fill="#444444" points="184.627,733,174.627,737,184.627,741,180.627,737" style="stroke:#444444;stroke-width:1;"/><text fill="#000000" font-family="Helvetica" font-size="13" lengthAdjust="spacing" textLength="134.0244" x="180.627" y="719.0103">U = 1/2 (U + U1 + dt R)</text></g><g class="message" data-participant-1="C" data-participant-2="Loop"><polygon fill="#444444" points="70.3652,760,60.3652,764,70.3652,768,66.3652,764" style="stroke:#444444;stroke-width:1;"/><line style="stroke:#444444;stroke-width:1;stroke-dasharray:2,2;" x1="64.3652" x2="167.627" y1="764" y2="764"/><text fill="#000000" font-family="Helvetica" font-size="13" lengthAdjust="spacing" textLength="54.9199" x="76.3652" y="759.0103">U avance</text></g><path d="M537,777 L537,852 L823,852 L823,787 L813,777 L537,777" fill="#FEFFDD" style="stroke:#181818;stroke-width:0.5;"/><path d="M813,777 L813,787 L823,787 L813,777" fill="#FEFFDD" style="stroke:#181818;stroke-width:0.5;"/><text fill="#000000" font-family="Helvetica" font-size="13" lengthAdjust="spacing" textLength="188.6206" x="575.1787" y="792.0103">La physique (Model) est appelee</text><text fill="#000000" font-family="Helvetica" font-size="13" lengthAdjust="spacing" textLength="166.937" x="575.1787" y="805.0103">point par point dans le seam.</text><text fill="#000000" font-family="Helvetica" font-size="13" lengthAdjust="spacing" textLength="191.4707" x="575.1787" y="818.0103">Le seam choisit serie / OpenMP /</text><text fill="#000000" font-family="Helvetica" font-size="13" lengthAdjust="spacing" textLength="201.5889" x="575.1787" y="831.0103">Kokkos a la compilation -- le Model</text><text fill="#000000" font-family="Helvetica" font-size="13" lengthAdjust="spacing" textLength="80.2153" x="575.1787" y="844.0103">ne le sait pas.</text><!--SRC=[XLHDJnin4BtlhnZH0xjjDZJqGoqYI3GbKD5Gb9HRfMXY3yJ2QxksDz1_tx6pmEPGDOVi9lFU-CsR6U_3LuLt7fk6G184-jsI4GH7q1fm643Orcc2zHz7VcMrudXDMYiNq-kms8UPDT4JwFrlLp_FvgUJdzz-N05j_wESGApvMVvk5Q1pJ2RWzmf2wvzEMIokw_dbuR0eeeeSHocMmZcewnT9SdzNKZd9JtzqX7A3Z1WyfQcA8jmhuv3hWh16QH-KkODRr85w4KctsEeuPVrNoFLVaDvGL0BxxExqK-_jmyHgw-7L-_pfWVYRQSgXYLzGtDzvsnhPWQVlfn-dd_u1jbwIxu1lFtqOVPuK1Oh8F_TMR9lEFOdKkB07NFXtQrtHuyDUPq6EJdP3PzicYL-cF2VRKFHApCwh39sTxs8n16fMcfP-lJrfVh7OHSoi9CsflYehRFJMT8bsKRVMBmd5UYcuox_CyN4WR4vECdHnTZehYbG2r2SmuGdhsbRU3436AXMkDXY92od6OnWDmLEmketA6dWPEHYFYqbACJld72ouhE2uXYO977OmaGefRweUa3DjgEoTmXvmeEwqkBM2yW5zKuV85LM5f3voygovVOGnb0mV0A-DJCGgwpqS0aMy8vXVCcxEg5gg3KpX3IoUDRElAKdFxZ8B7m2RmBa7CEz9J5r832OczvYvOt2viapGsAmazbZPw8nFjIUIRX_Bf_nI-Medsk3ZyW4tj0oEIFuR5sphjytYU5NCidMTh0rgQdq0Pus8RThmq76VQvvpDnkdLT_Oh3GNsBaxxqTJzS- -tupOq1lsKaPupRZa-BiXhwUmHdR6bvxgtERSJSTwcLRjpait1W3bDVb5ebN_xSpefJKlUbZEwE0GogI9nMLX34W8XkGnJoZC8zulYwVRM7xQ3Vdim82t2E0xike_8KzucRUj0WfnUsCICS9PnJl6-zQzIJI1RrX8EpPC6RQl8DPM1HNvXrS41_33aPbTmm53BktzlGs0F3HyYpPEQSpRnTSi9ygdCifGJeigdHQ61R73INBn5m00]--></g></svg>