<svg xmlns="http://www.w3.org/2000/svg" xmlns:xlink="http://www.w3.org/1999/xlink" contentStyleType="text/css" data-diagram-type="ACTIVITY" height="772px" preserveAspectRatio="none" style="width:584px;height:772px;background:#FFFFFF;" version="1.1" viewBox="0 0 584 772" width="584px" zoomAndPan="magnify"><title>adc_cpp -- pas AMR (sous-cyclage Berger-Oliger + reflux)</title><defs/><g><g class="title" data-source-line="4"><text fill="#000000" font-family="Helvetica" font-size="14" font-weight="bold" lengthAdjust="spacing" textLength="383.9404" x="98.6826" y="30.7803">adc_cpp -- pas AMR (sous-cyclage Berger-Oliger + reflux)</text></g><ellipse cx="180.9761" cy="55" fill="#222222" rx="10" ry="10" style="stroke:#222222;stroke-width:1;"/><rect fill="#F4F6F8" height="32" rx="12.5" ry="12.5" style="stroke:#08519C;stroke-width:0.5;" width="168.0781" x="96.937" y="85"/><text fill="#000000" font-family="Helvetica" font-size="12" lengthAdjust="spacing" textLength="148.0781" x="106.937" y="104.2402">subcycle_level(niveau L, dt)</text><polygon fill="#FDE9E9" points="135.4185,137,226.5337,137,238.5337,149,226.5337,161,135.4185,161,123.4185,149,135.4185,137" style="stroke:#08519C;stroke-width:0.5;"/><text fill="#000000" font-family="Helvetica" font-size="11" lengthAdjust="spacing" textLength="91.1152" x="135.4185" y="151.9702">niveau le plus fin ?</text><text fill="#000000" font-family="Helvetica" font-size="11" lengthAdjust="spacing" textLength="14.6792" x="108.7393" y="146.4702">oui</text><text fill="#000000" font-family="Helvetica" font-size="11" lengthAdjust="spacing" textLength="18.353" x="238.5337" y="146.4702">non</text><rect fill="#F4F6F8" height="44" rx="12.5" ry="12.5" style="stroke:#08519C;stroke-width:0.5;" width="105.6934" x="33.6875" y="171"/><text fill="#000000" font-family="Helvetica" font-size="12" lengthAdjust="spacing" textLength="75.3574" x="43.6875" y="190.2402">remplir ghosts</text><text fill="#000000" font-family="Helvetica" font-size="12" lengthAdjust="spacing" textLength="85.6934" x="43.6875" y="202.2402">(BC + halo MPI)</text><rect fill="#F4F6F8" height="44" rx="12.5" ry="12.5" style="stroke:#08519C;stroke-width:0.5;" width="151.0684" x="11" y="235"/><text fill="#000000" font-family="Helvetica" font-size="12" lengthAdjust="spacing" textLength="131.0684" x="21" y="254.2402">assemble_rhs + avancer</text><text fill="#000000" font-family="Helvetica" font-size="12" lengthAdjust="spacing" textLength="53.3555" x="21" y="266.2402">U(L) de dt</text><ellipse cx="86.5342" cy="312" fill="none" rx="11" ry="11" style="stroke:#222222;stroke-width:1;"/><ellipse cx="86.5342" cy="312" fill="#222222" rx="6" ry="6" style="stroke:#222222;stroke-width:1;"/><rect fill="#F4F6F8" height="44" rx="12.5" ry="12.5" style="stroke:#08519C;stroke-width:0.5;" width="142.3613" x="204.2373" y="171"/><text fill="#000000" font-family="Helvetica" font-size="12" lengthAdjust="spacing" textLength="116.7129" x="214.2373" y="190.2402">sauver le flux grossier</text><text fill="#000000" font-family="Helvetica" font-size="12" lengthAdjust="spacing" textLength="122.3613" x="214.2373" y="202.2402">aux faces de l'interface</text><rect fill="#F4F6F8" height="32" rx="12.5" ry="12.5" style="stroke:#08519C;stroke-width:0.5;" width="119.3809" x="215.7275" y="235"/><text fill="#000000" font-family="Helvetica" font-size="12" lengthAdjust="spacing" textLength="99.3809" x="225.7275" y="254.2402">avancer U(L) de dt</text><rect fill="none" height="278" style="stroke:#000000;stroke-width:1.5;" width="360.9375" x="188.8818" y="289"/><path d="M305.0986,289 L305.0986,296 L295.0986,306 L188.8818,306" fill="none" style="stroke:#000000;stroke-width:1.5;"/><text fill="#000000" font-family="Helvetica" font-size="14" lengthAdjust="spacing" textLength="106.2168" x="191.8818" y="300.7803">sous-cyclage r=2</text><rect fill="#F4F6F8" height="56" rx="12.5" ry="12.5" style="stroke:#08519C;stroke-width:0.5;" width="142.3965" x="204.2197" y="367"/><text fill="#000000" font-family="Helvetica" font-size="12" lengthAdjust="spacing" textLength="97.3652" x="214.2197" y="386.2402">remplir ghosts fins</text><text fill="#000000" font-family="Helvetica" font-size="12" lengthAdjust="spacing" textLength="122.3965" x="214.2197" y="398.2402">(interp espace + temps</text><text fill="#000000" font-family="Helvetica" font-size="12" lengthAdjust="spacing" textLength="89.3906" x="214.2197" y="410.2402">depuis le parent)</text><path d="M371.9541,454 L371.9541,474.5 L351.9541,478.5 L371.9541,482.5 L371.9541,503 A0,0 0 0 0 371.9541,503 L515.8193,503 A0,0 0 0 0 515.8193,503 L515.8193,464 L505.8193,454 L371.9541,454 A0,0 0 0 0 371.9541,454" fill="#FEFFDD" style="stroke:#181818;stroke-width:0.5;"/><path d="M505.8193,454 L505.8193,464 L515.8193,464 L505.8193,454" fill="#FEFFDD" style="stroke:#181818;stroke-width:0.5;"/><text fill="#000000" font-family="Helvetica" font-size="13" lengthAdjust="spacing" textLength="60.6899" x="377.9541" y="469.0103">recursion :</text><text fill="#000000" font-family="Helvetica" font-size="13" lengthAdjust="spacing" textLength="122.8652" x="377.9541" y="482.0103">chaque niveau fin fait</text><text fill="#000000" font-family="Helvetica" font-size="13" lengthAdjust="spacing" textLength="106.958" x="377.9541" y="495.0103">2 sous-pas de dt/2</text><rect fill="#F4F6F8" height="32" rx="12.5" ry="12.5" style="stroke:#08519C;stroke-width:0.5;" width="153.0723" x="198.8818" y="462.5"/><text fill="#000000" font-family="Helvetica" font-size="12" lengthAdjust="spacing" textLength="133.0723" x="208.8818" y="481.7402">subcycle_level(L+1, dt/2)</text><polygon fill="#FDE9E9" points="275.418,323,287.418,335,275.418,347,263.418,335,275.418,323" style="stroke:#08519C;stroke-width:0.5;"/><polygon fill="#FDE9E9" points="232.3123,523,318.5237,523,330.5237,535,318.5237,547,232.3123,547,220.3123,535,232.3123,523" style="stroke:#08519C;stroke-width:0.5;"/><text fill="#000000" font-family="Helvetica" font-size="11" lengthAdjust="spacing" textLength="14.6792" x="279.418" y="555.4702">oui</text><text fill="#000000" font-family="Helvetica" font-size="11" lengthAdjust="spacing" textLength="86.2114" x="232.3123" y="537.9702">2 sous-pas faits ?</text><text fill="#000000" font-family="Helvetica" font-size="11" lengthAdjust="spacing" textLength="18.353" x="330.5237" y="532.4702">non</text><rect fill="#F4F6F8" height="56" rx="12.5" ry="12.5" style="stroke:#08519C;stroke-width:0.5;" width="138.0488" x="206.3936" y="587"/><text fill="#000000" font-family="Helvetica" font-size="12" lengthAdjust="spacing" textLength="78.7266" x="216.3936" y="606.2402">average_down</text><text fill="#000000" font-family="Helvetica" font-size="12" lengthAdjust="spacing" textLength="97.0254" x="216.3936" y="618.2402">(fin -&gt; grossier sur</text><text fill="#000000" font-family="Helvetica" font-size="12" lengthAdjust="spacing" textLength="118.0488" x="216.3936" y="630.2402">les cellules couvertes)</text><path d="M388.7676,673 L388.7676,687 L368.7676,691 L388.7676,695 L388.7676,709 A0,0 0 0 0 388.7676,709 L572.3057,709 A0,0 0 0 0 572.3057,709 L572.3057,683 L562.3057,673 L388.7676,673 A0,0 0 0 0 388.7676,673" fill="#FEFFDD" style="stroke:#181818;stroke-width:0.5;"/><path d="M562.3057,673 L562.3057,683 L572.3057,683 L562.3057,673" fill="#FEFFDD" style="stroke:#181818;stroke-width:0.5;"/><text fill="#000000" font-family="Helvetica" font-size="13" lengthAdjust="spacing" textLength="145.2407" x="394.7676" y="688.0103">rend la masse conservee</text><text fill="#000000" font-family="Helvetica" font-size="13" lengthAdjust="spacing" textLength="162.5381" x="394.7676" y="701.0103">a l'arrondi machine (~1e-15)</text><rect fill="#F4F6F8" height="56" rx="12.5" ry="12.5" style="stroke:#08519C;stroke-width:0.5;" width="186.6992" x="182.0684" y="663"/><text fill="#000000" font-family="Helvetica" font-size="12" lengthAdjust="spacing" textLength="136.7227" x="192.0684" y="682.2402">REFLUX coverage-aware</text><text fill="#000000" font-family="Helvetica" font-size="12" lengthAdjust="spacing" textLength="84.0234" x="192.0684" y="694.2402">U(L) corrige par</text><text fill="#000000" font-family="Helvetica" font-size="12" lengthAdjust="spacing" textLength="166.6992" x="192.0684" y="706.2402">(somme flux fins - flux grossier)</text><ellipse cx="275.418" cy="750" fill="none" rx="11" ry="11" style="stroke:#222222;stroke-width:1;"/><ellipse cx="275.418" cy="750" fill="#222222" rx="6" ry="6" style="stroke:#222222;stroke-width:1;"/><line style="stroke:#181818;stroke-width:1;" x1="180.9761" x2="180.9761" y1="65" y2="85"/><polygon fill="#181818" points="176.9761,75,180.9761,85,184.9761,75,180.9761,79" style="stroke:#181818;stroke-width:1;"/><line style="stroke:#181818;stroke-width:1;" x1="86.5342" x2="86.5342" y1="215" y2="235"/><polygon fill="#181818" points="82.5342,225,86.5342,235,90.5342,225,86.5342,229" style="stroke:#181818;stroke-width:1;"/><line style="stroke:#181818;stroke-width:1;" x1="86.5342" x2="86.5342" y1="279" y2="301"/><polygon fill="#181818" points="82.5342,291,86.5342,301,90.5342,291,86.5342,295" style="stroke:#181818;stroke-width:1;"/><line style="stroke:#181818;stroke-width:1;" x1="275.418" x2="275.418" y1="215" y2="235"/><polygon fill="#181818" points="271.418,225,275.418,235,279.418,225,275.418,229" style="stroke:#181818;stroke-width:1;"/><line style="stroke:#181818;stroke-width:1;" x1="275.418" x2="275.418" y1="423" y2="462.5"/><polygon fill="#181818" points="271.418,452.5,275.418,462.5,279.418,452.5,275.418,456.5" style="stroke:#181818;stroke-width:1;"/><line style="stroke:#181818;stroke-width:1;" x1="275.418" x2="275.418" y1="347" y2="367"/><polygon fill="#181818" points="271.418,357,275.418,367,279.418,357,275.418,361" style="stroke:#181818;stroke-width:1;"/><line style="stroke:#181818;stroke-width:1;" x1="330.5237" x2="527.8193" y1="535" y2="535"/><polygon fill="#181818" points="523.8193,443,527.8193,433,531.8193,443,527.8193,439" style="stroke:#181818;stroke-width:1;"/><line style="stroke:#181818;stroke-width:1;" x1="527.8193" x2="527.8193" y1="335" y2="535"/><line style="stroke:#181818;stroke-width:1;" x1="527.8193" x2="287.418" y1="335" y2="335"/><polygon fill="#181818" points="297.418,331,287.418,335,297.418,339,293.418,335" style="stroke:#181818;stroke-width:1;"/><line style="stroke:#181818;stroke-width:1;" x1="275.418" x2="275.418" y1="494.5" y2="523"/><polygon fill="#181818" points="271.418,513,275.418,523,279.418,513,275.418,517" style="stroke:#181818;stroke-width:1;"/><line style="stroke:#181818;stroke-width:1;" x1="275.418" x2="275.418" y1="267" y2="323"/><polygon fill="#181818" points="271.418,313,275.418,323,279.418,313,275.418,317" style="stroke:#181818;stroke-width:1;"/><line style="stroke:#181818;stroke-width:1;" x1="275.418" x2="275.418" y1="547" y2="587"/><polygon fill="#181818" points="271.418,577,275.418,587,279.418,577,275.418,581" style="stroke:#181818;stroke-width:1;"/><line style="stroke:#181818;stroke-width:1;" x1="275.418" x2="275.418" y1="643" y2="663"/><polygon fill="#181818" points="271.418,653,275.418,663,279.418,653,275.418,657" style="stroke:#181818;stroke-width:1;"/><line style="stroke:#181818;stroke-width:1;" x1="275.418" x2="275.418" y1="719" y2="739"/><polygon fill="#181818" points="271.418,729,275.418,739,279.418,729,275.418,733" style="stroke:#181818;stroke-width:1;"/><line style="stroke:#181818;stroke-width:1;" x1="123.4185" x2="86.5342" y1="149" y2="149"/><line style="stroke:#181818;stroke-width:1;" x1="86.5342" x2="86.5342" y1="149" y2="171"/><polygon fill="#181818" points="82.5342,161,86.5342,171,90.5342,161,86.5342,165" style="stroke:#181818;stroke-width:1;"/><line style="stroke:#181818;stroke-width:1;" x1="238.5337" x2="275.418" y1="149" y2="149"/><line style="stroke:#181818;stroke-width:1;" x1="275.418" x2="275.418" y1="149" y2="171"/><polygon fill="#181818" points="271.418,161,275.418,171,279.418,161,275.418,165" style="stroke:#181818;stroke-width:1;"/><line style="stroke:#181818;stroke-width:1;" x1="180.9761" x2="180.9761" y1="117" y2="137"/><polygon fill="#181818" points="176.9761,127,180.9761,137,184.9761,127,180.9761,131" style="stroke:#181818;stroke-width:1;"/><!--SRC=[VLHTQzj047pNhrZI1zkaIchJbCIbBOrZauBJba2W3m6pEQsa8wSxzJwKXfB-zkwTRDTEe4-IzdPdTsRsD80BYPN5fY4e1YYyxAGdc4BGqAA3prVNCCIYGoreXOs5Ot3XJZmAHIj57QbLquwEiW5S6UqjWK9eoDUc8CXpS2QuF2PZHN1EjYARVrEI7s0_JE0GB9Kg_09Xj2FRePVbKPPvwHK15c8bsZR2R0Vv3zu6QvHbxbxg5faJk1eByo1r1IKgHpid1PKOb5_mr5-HkL-IwiXBWJivQpKUuNS6S8xYlh8cw69cbB7mQl5syMvn6a-CBSYkeszEJyPdCuwoh8tHnSkoY_dP_2nxuZ4zMfzDz-KSQjaH1bY-XiAFtcUPB64JOr5Q5HoKKiEd4VYQD0nDa2DkDxNKj4fQg6hZlBlLm_CPQrAZCd3r_GiZSGuwHyqTjxAruqDChjfRVJDSZbWHxXZJd3TjHYmNDpOwWJiC7MlC0oIxc91pCbOYVvKeoCLoDP3QautVVRiU7_RXMLisM1eD1tjsya8S9AM1dMm9VNfzmIooZ_HIgnR8jToEoNZEudX1RP0kIOMMj4_44ympdPU7uoZnyMIReGqllfLLlUaS1n71kZZhT1iJDVuC16jFeXSbodybatxfuyecoiUJzH7f8hNOOGWFjUH9Xpir4Sj5Tvb4aZ_MR5r-wcKbouAjUBCr2n4do3zkFU7hoRueTaIGKY6zcEYU9zTlmVLyiRpvmT4U9yS7Lcgz1C9OLY29nz3EnDz2iZog3lc-_GdkcMesqem_WRXhctjDFMda3K5h-LP8FXUrrCpzpvZoyKaajoDGluASLsP_0G00]--></g></svg>